<svg xmlns="http://www.w3.org/2000/svg" width="90" height="72" fill="none" viewBox="0 0 90 72"><path fill="#681641" d="M82.98 63.91L77.05 58.51L76.63 43.21L71.06 29.89L68.62 26.46L64.93 24.2L54.73 22.24L47.36 23.66L38.61 28.31L20.87 13.44L2.41 0L1.26 3.82L19.57 17.1L31.76 28.65L7.64 15.99L4.92 17.78L32.39 34.18L32.32 34.53L15.78 28.04L1.01 20.38L0 23.65L25.06 36.89C16.53 35.28 6.55 33.32 6.55 33.32L5.01 36.63L32.44 44.83L32.78 53.31L34.91 64.36L37.88 68.03L45.85 71.88C45.85 71.88 57.07 71.91 57.96 71.3C58.85 70.69 66.75 65.83 66.75 65.83L70.85 61.59C70.85 61.59 72.8 61.19 74.49 61.77C76.18 62.35 83.42 66.32 83.42 66.32C83.42 66.32 90.29 67.51 89.91 67.44C89.54 67.37 82.98 63.92 82.98 63.92V63.91ZM54.78 35.76L55.64 31.28L57.33 28.51L55.86 36.16L53.19 37.97L54.78 35.76ZM46.72 40.21L50.88 31.91L50.72 35.75L48.05 40.07L45.62 43.67L46.72 40.21ZM45.24 48.15L49.53 44.43L45.65 50.55L42.53 52.18L45.24 48.15ZM44.01 58.85L40.11 61.29L40.34 60.08L43.37 57.66L46.97 52.26L44.01 58.85ZM48.67 65.22L46.87 65.2L48.91 64.49L49.91 63.49L51.02 61.41V63.38L48.68 65.22H48.67ZM52.46 55.24L50.92 55.85L51.99 54.64L52.75 53.72L53.63 51.41L53.68 53.55L52.45 55.25L52.46 55.24ZM57.25 42.04L54.67 46.38L52.5 47.61L55.25 42.96C55.25 42.96 57.81 38.57 57.96 38.31C58.11 38.05 57.24 42.04 57.24 42.04H57.25ZM61.18 59.88L59.58 60.15L60.88 59.11C60.88 59.11 61.98 56.74 62.02 56.55C62.06 56.36 62.06 58.69 62.06 58.69L61.19 59.88H61.18ZM61.75 49.87L60.24 50.35L61.61 48.1L61.8 45.62L62.61 47.78L61.76 49.87H61.75ZM64.04 35.41L62.71 37.48L63.74 32.13L64.11 28.52L64.57 30.22L64.04 35.41ZM69.51 45.69L68.32 45.84L69.36 44.81C69.36 44.81 69.72 43.27 69.73 42.88C69.73 42.49 70.26 44.47 70.26 44.47L69.51 45.69Z"/></svg>