<svg xmlns="http://www.w3.org/2000/svg" width="311" height="156" fill="none" viewBox="0 0 311 156"><path fill="#fffaef" d="M40.47 122.48 38.24 122.73 35.64 123.04 33.1 122.73 30.19 123.04 27.65 122.73V119.94L27.96 117.09V108.78L28.21 105.93 28.52 103.08V100.23L23.07 105.06H17.43L12.04 100.23V102.77L12.29 105.06V110.2L12.85 112.74 12.6 115.34 13.16 117.63V120.17L13.47 123.02H10.62L7.96 122.71H5.42L2.57 123.02.34 122.46V120.17L.03 117.32.59 114.78V111.87L.9 109.02.59 106.48V103.63L1.15 101.09.9 98.24 1.15 95.7 1.46 92.85V84.79L2.02 81.94 1.77 79.4V76.55L4.87 76.3 7.97 76.86 10.88 76.55 12.06 79.09 13.49 81.38 14.61 83.67 15.48 86.21 16.91 88.5 17.72 91.04 19.02 93.21 20.32 95.69 21.75 93.4 22.56 90.8 23.74 88.51 25.17 86.22 26.29 83.93 27.16 81.39 28.28 78.85 29.46 76.31H32.62L35.72 76.87 38.57 76.56V79.41L39.19 81.95 38.88 84.8 39.19 87.4V90.19L39.44 93.1 39.75 95.7V98.49L40 101.09V106.48L40.31 109.33V111.87L40.56 114.78 40.87 117.32V120.17L40.56 122.46 40.47 122.48ZM65.91 123.28 59.15 123.03 52.46 123.28 46.01 123.03 46.13 118.44 46.25 115.22 45.82 113.3 46.44 111.32V109.34L46.25 107.05 46.62 104.57 47.05 99.8 46.93 94.35 47.3 92.06 46.87 90.57 47.61 88.96 47.36 86.6 47.92 84.8 47.49 82.94 47.92 80.77 47.61 79.78 47.98 77.92 48.04 76.56 49.34 76.44 52.44 76.56H55.54L58.51 76.44 60.18 76.56 62.72 76.25 64.77 76.5 66.82 76.44 70.29 76.56 70.35 77.55 70.29 78.79 70.48 79.91 70.54 80.72 70.48 81.4V82.95L70.6 83.82 70.54 84.81 69.73 84.69 68.24 84.81 65.7 84.62 63.28 84.56 59.93 84.87 57.08 84.62 56.09 84.81V85.06L56.03 85.43 56.15 85.93V86.43L56.46 87.05 56.09 87.79 56.52 89.4 56.33 90.33 56.52 91.63V92.37L56.58 92.68V93.11H56.89L57.14 93.17 57.45 92.98 58.26 92.92 59 92.98 59.99 93.17 60.8 93.05 61.85 93.11 62.84 93.05 63.34 93.11 64.33 93.17 65.14 93.11 66.13 93.05 67 93.11H67.87L68.37 92.99 68.99 93.11V94.91L68.87 95.47 68.75 96.71 68.81 97.64 69.12 98.57 69.06 99.56 69.25 100.37 69.06 102.11 69.18 103.29 69.12 104.59 69.24 105.27 68.5 105.39 67.07 105.27 65.58 105.33H64.34L63.22 105.39 62.35 105.27 60.74 105.33 59.75 105.21 58.76 105.27 57.71 105.21 56.84 105.27V106.08L57.21 107.13V107.63L57.09 108.19 57.21 108.93 57.15 109.49 57.34 110.54 57.28 111.97 57.4 112.78 57.52 113.96V114.64L57.71 115.94 57.65 116.31 58.27 116.25 58.89 116.31 59.88 116.25 60.44 116.31 61.25 116.25 61.75 116.31 62.62 116.43 63.36 116.06 64.04 116.31 65.03 116.12 65.46 116.18 66.27 116.24 67.57 116.3 68.5 116.05 69.55 115.99 70.29 116.11H71.1L71.91 116.05H72.34L72.22 117.54 72.41 118.53 72.29 119.27 72.48 121.94 72.36 123.06 65.91 123.31V123.28ZM153.38 112.99 153.5 116.34 154.06 119.75V122.91L151.46 123.03H148.67L145.88 122.72 143.09 123.09 140.36 122.66 137.39 122.72 134.48 122.16 131.51 121.66 128.72 120.79 125.81 119.92 123.52 118 121.1 116.14 119.18 113.72 117.69 111.24 116.95 108.33 116.14 105.6 114.34 107.4 112.73 109.38 111.18 111.49 110.93 114.34 111.24 117.19 111.61 120.04V122.89L108.33 123.01 104.98 122.64 101.82 122.89 98.72 122.64 98.53 119.73V116.63L99.03 113.66 99.22 110.56 99.03 107.4 99.09 104.3 99.46 101.39 99.4 98.11V95.13L100.08 92.16 99.71 89.06 99.96 85.96 100.15 82.92 100.27 79.82 100.46 76.78H103.37L106.41 76.59 109.32 76.9V79.69L109.88 82.79 109.76 85.76 109.88 88.86 110.13 91.77V94.81L110.5 97.91 112.36 95.49 114.47 93.57 116.27 91.15 118.38 89.17 118.32 86.07 118.63 82.97V79.81L118.88 76.77 121.98 76.52 124.89 76.95 127.87 76.89 127.56 79.8 127.37 82.96V86.24L126.69 89.21V92.5L124.64 94.61 123.03 96.96 122.53 97.33 123.89 100.12 125.07 102.97 126.31 105.7 127.86 108.3 130.09 110.35 132.69 111.71 135.67 112.58 138.64 112.95 141.68 112.76 144.53 113.26 147.44 113.14 150.41 113.02 153.38 112.96V112.99ZM150.78 77.85 151.46 83.12V85.29L151.65 87.46V90.5L152.08 94.84 152.33 95.96V100.05L152.52 101.17V103.34L152.95 105.32V106.37L153.14 108.6 152.95 109.41 151.9 109.6 150.6 109.41H149.48L148.36 109.6H146V108.55L145.75 107.5 145.56 103.16 144.26 102.85H141.84L140.72 103.16V104.21L140.53 106.38 140.28 107.5V108.55L140.09 109.6H130.55L130.74 108.55V106.38L130.99 102.23 131.18 101.18 131.61 93.74 131.86 89.46V85.31L132.05 84.19V80.97L132.3 80.1V77.87L132.49 76.82 137.76 76.7H148.61L149.66 76.51 150.78 76.82V77.87 77.85ZM141.42 95.33H144.95L144.7 94.15V87.7L144.51 85.47 144.26 84.6 143.21 84.17 142.09 84.42H140.73L140.54 85.47 140.73 86.59 140.54 89.87 140.29 90.92V91.97L140.1 93.09V95.32H141.4L141.42 95.33ZM179.42 76.55H184.44L186.86 76.24 189.34 76.86H191.94L194.73 76.55V81.82L195.04 84.36 192.25 84.67 189.03 84.36 186.24 84.67V87.21L186.55 89.69V92.11L186.86 94.9V97.44L187.17 100.29 187.48 102.77 187.17 105.25 187.79 108.1V110.58L188.41 113.31 188.1 116.16H190.95L193.8 115.85H196.59L196.9 118.08 196.59 120.56 197.21 123.04H194.42L192.25 122.73H184.75L182.27 122.42 179.73 123.04 177.25 121.18 175.39 119.01 175.7 116.16 175.39 113.62 175.7 110.89V108.41L176.01 105.56 176.32 103.08 175.7 100.29 176.32 97.75 176.01 94.9 176.63 92.42 176.32 90 176.63 87.21V79.34L176.94 76.55H179.42ZM230.19 102.89 230.5 105.56V110.64L230.69 113.06 230.94 115.48 231.25 118.08 229.33 119.94 227.16 121.24 225.24 122.91H220.41L217.93 123.47 215.51 123.22 213.03 122.91H204.23L201.26 123.22V120.18L201.57 117.45V114.72L201.76 111.99V109.26L202.07 106.53 201.76 103.8 202.07 101.01 202.32 98.35V92.83L202.69 90.1 202.94 87.43 202.69 84.77 203.19 81.98V76.53H206.16L209.2 76.78 211.86 76.22 212.42 76.53H219.61L222.03 76.22H224.45L226.43 77.77 228.04 79.44 228.29 82.23 228.54 85.21 229.04 88.06 229.35 90.66V93.45L229.72 96.12 226.87 98.6 229.72 100.58 230.22 102.87 230.19 102.89ZM213.51 84.36 212.39 85.04 212.64 87.7V90.37L213.26 93.16V94.28L214.31 94.78 216.73 95.34H219.27L220.39 94.29 219.83 91.38V88.34L219.58 85.24 218.71 84.12H215.92L213.5 84.37 213.51 84.36ZM218.97 116.16 220.4 115.48 220.09 112.32 219.84 109.53V106.56L219.28 103.83 218.41 102.65 215.93 102.9 213.51 102.4 212.39 103.52V106.25L213.01 108.98V111.77L213.26 115.24 214.07 116.42H216.49L218.97 116.17V116.16ZM248.27 123.03H245.54L242.81 123.4 240.45 123.03H235V120.3L235.37 117.57V112.05L235.8 109.32V98.41L236.17 95.68V87.5L236.54 84.77V81.98L236.97 79.32V76.53L239.63 76.96 242.79 76.53H245.89V81.98L246.7 84.77 246.33 87.5 246.7 90.23V92.96L247.07 95.69 246.7 98.42 247.07 101.15 247.5 103.88V106.61L247.87 109.34V120.31L248.24 123.04 248.27 123.03ZM309.08 76.49V84.8L309.45 87.53 309.82 90.26V98.63L310.25 101.36V103.9L310.62 106.63V109.36L310.99 111.96 310.62 114.69V117.29L310.99 120.45V122.74L308.26 123.05 305.28 122.74 302.55 123.05V115.12L302.18 112.39V109.79H295.67V112.39L295.3 115.12V117.72L294.87 120.45 295.3 123.05 292.32 122.74 289.16 123.05 286.56 122.74 283.46 123.05V120.01L283.83 117.28 284.26 114.68V103.9L284.63 101.36 285 98.2 284.63 95.6 285 92.87V87.54L285.37 84.81V82.21L285.8 79.48 285.37 76.88 287.97 76.51H290.7L293.43 76.88H296.03L298.76 76.51H300.99L303.72 76.88 306.45 76.51H309.05L309.08 76.49ZM294.89 98.62 298.42 98.19 301.4 98.62V92.86L301.03 90.26V87.16L300.66 84.56 298.43 84.19 295.7 84.56V90.26L295.33 92.86V95.59L294.9 98.63 294.89 98.62Z"/><path fill="#fffaef" d="M86.53 96.94 85.04 94.34 82.81 92.48V89.94L82.5 86.97 82.13 84.43V81.83L81.76 79.29V76.69H84.74L87.65 77.12 90.94 76.69 91.31 79.29 90.94 81.52 91.31 84.06V86.66 89.2L93.11 91.43 95.34 93.23 97.14 95.83 99.37 98V95.09 92.49 89.95L99.74 87.41 100.11 84.44V81.84 79.3 76.39L103.39 76.7H106.3L109.27 76.39V79.3 82.27L109.64 84.81V87.41L110.01 90.32V92.92 95.83L110.38 98.37V100.97 103.88L110.75 106.42V109.39L110.38 111.93 111.12 114.53 110.75 117.44 111.12 120.04V122.95H108.52 105.98L103.38 122.58 100.84 122.95H97.93V120.04L98.24 117.07V114.53 111.56L96.81 109.76 95.32 107.9 93.89 105.73 92.4 104.24 91.66 106.41 90.92 109.38 89.87 111.92 89.44 114.89 88.32 117.43 87.95 120.03 86.9 122.57 84.73 122.94H82.5 80.27L78.1 121.14 75.87 119.22 77.36 116.68 78.48 114.51 79.6 111.91 80.65 109.37 81.77 106.83 83.26 104.6 84.31 102 85.05 99.46 86.54 96.92 86.53 96.94ZM252.12 100.35 252.55 97.69V95.45 92.73L252.86 90.06V87.83L253.23 85.17V82.81L253.61 80.15 255.15 78.66 257.08 77.11H259.37 262.03L262.59 79.68 261.9 82.36V86.9L261.66 88.57V91.61 94.65L261.29 97.31 262.41 98.49H264.7 267.36L268.54 97.31V93.9 91.24 88.57L268.91 85.54 268.84 85.49 268.91 84.3V78.45L269.6 77.11H272.32L275.36 76.74 278.4 77.11V79.77 82.5 85.17 87.83L279.14 90.43 278.77 93.1 279.14 96.14V98.86 101.53 104.19L279.51 106.86V109.52L279.88 112.13 279.51 114.85 280.32 117.52 279.88 120.56V123.22H277.65 274.99L272.32 122.85 269.6 123.22 266.99 122.85V120.56L267.36 118.26V115.6 112.93L267.74 110.64V108.04 105.68L265.07 105.31 262.78 105.68H260.11 257.45 254.78L253.23 104.19 251.75 102.64 252.12 100.35Z"/><path fill="#86a441" d="M183.2 51.87 187.14 49.06 190.86 40.57 191.77 34.71 190.67 31.49 188.03 26.87 176.93 21.01 174.11 20.25 163.42 21.92 156.46 24.83 144.41 30.54 138.72 35.93 138.67 38.69 140.39 51.48 144.09 56.1 152.61 60.08H162.29L183.21 51.88 183.2 51.87ZM148.72 33.31 148.26 31.97 149.21 31.12 150.32 31.27 150.91 33.01 148.72 33.32V33.31ZM176.61 25.73 178.84 26.56 178.8 28.25 177.96 29.16 176.27 29.38 175.19 26.22 176.61 25.73ZM169.07 30.69 169.39 31.62 168.1 31.73 167.01 32.43 166.77 31.72 167.39 30.82 169.07 30.69ZM144.47 41.17 143.98 40.76 144.46 39.45 145.42 38.77 145.86 39.41 146.25 40.56 144.47 41.17ZM157.45 38.94 158.09 37.44 157.89 35.83 158.95 34.8 159.93 33.8 161.88 34.46 161.66 36.66C161.66 36.66 158.32 39.57 158.4 39.67 158.48 39.78 157.44 38.94 157.44 38.94H157.45ZM152.26 44.96 152 44.21 152.33 43.88 152.77 43.73 153.18 44.92 152.27 44.97 152.26 44.96ZM149.22 49.26 149.02 48.67 150.33 47.6 151.16 47.32 151.81 47.54 151.91 48.35 149.22 49.27V49.26ZM168.94 42.52 165.72 42.98 165.42 42.11 167.89 41.6 169.91 40.91 170.3 42.06 168.94 42.53V42.52ZM184.67 43.62 185.03 44.69 184.26 45.68 182.36 46.33 181.86 45.77 182.31 44.43 182.8 43.34 184.67 43.63V43.62ZM158.44 46.69 159.92 46.18 160.2 47.01 158.96 48.43 157.37 49.97 156.3 49.54C156.3 49.54 157.52 48.06 157.81 47.96 158.1 47.86 158.43 46.69 158.43 46.69H158.44ZM144.81 53.73 145.82 53.39 147.08 52.03 148.09 51.69 148.48 52.82 148.33 54.33 146.35 55.34 144.81 53.75V53.73ZM161.18 50.65 161.83 50.03 163.55 49.84 163.85 50.73 163.62 51.6 161.6 51.89 161.17 50.64 161.18 50.65ZM153.86 56.93 152.41 56.56 151.18 55.86 152.13 55.54 154.13 55.58 154.91 56.57 153.86 56.93ZM278.7 57.09 278.39 54.76C278.39 54.76 263.85 56.67 263.61 56.7 263.46 56.72 259.26 57.12 255.96 57.44L255.93 57.2 264.28 55.63 272.92 54.25 279.54 52.97 279.2 50.4C279.2 50.4 266.69 52.86 266.45 52.89 266.26 52.92 258.32 53.96 255.1 54.38 255.1 54.35 255.08 54.32 255.07 54.29L261.64 52.95 274.82 49.99 274.51 47.66 266.37 49.79 254.49 52.29C254.28 51.57 254.13 51.05 254.13 51.05L248.51 49.83 238.97 51.82 222.95 52.58 211.44 53.6 202.94 56.07 192.37 57.71 180.75 60.71 168.41 68.46 160.85 67.86 157.23 67.36 150.66 64.91 145.25 62.92 152.65 66.97 158.57 69.13 163.16 70.49 171.45 70.13 181.24 70.93 189.22 70.98 196.73 71.22 212.49 69.88 219.05 70.37 226.83 69.84 234.82 70.01H238.46L242.15 69.54 247.6 68.82 256.32 64.73 256.78 63.57 256.61 62.3 262.64 61.72 275.63 60.42C275.63 60.42 274 57.94 273.77 58.05 273.54 58.16 263.17 59.44 263.17 59.44L256.33 60.08V60.01L267.95 58.48 278.72 57.06 278.7 57.09ZM204.05 69.24C204.05 69.24 204.19 67.94 203.87 67.64 203.55 67.34 202.47 63.32 202.47 63.32L202.61 61.96 203.43 63.75 204.82 69.15 204.04 69.24H204.05ZM207.56 61.76C207.48 61.44 208.08 60.46 207.83 60.32 207.59 60.18 207.15 58.16 207.15 58.16L207.91 57.16 208.43 61.83C208.43 61.83 207.63 62.09 207.55 61.76H207.56ZM214.39 65.76 213.73 59.83 213.26 55.66 214.2 55.55C214.21 55.67 215.07 64.4 215.07 64.4L214.39 65.76ZM218.75 69.16 217.97 62.16 216.91 58.22 218.07 56.39 217.54 58.36 219.51 65.18 219.65 69.06 218.75 69.16ZM219.63 57.34 219.25 53.94 219.89 54.12C219.89 54.12 220.25 57.73 220.31 57.84 220.36 57.96 221.17 60.73 221.17 60.73L219.63 57.34ZM223.63 68.29 223.26 63.48 222.76 55.5 223.4 58.04 224.12 62.64 224.74 68.16 223.64 68.28 223.63 68.29ZM225.78 61.58 224.98 57.78 224.45 53.07 225.47 52.96C225.46 53.21 225.93 58.96 225.93 58.96L227.05 63.06 225.77 61.58H225.78ZM229.29 57.7 228.73 52.67 229.52 52.33C229.49 52.46 230.4 60.23 230.4 60.23L231.92 67.89 229.29 57.7ZM238.02 67.3C238.02 67.3 236.82 62.88 236.56 62.78 236.3 62.68 236.35 60.52 236.3 60.41 236.25 60.3 237.59 62.71 237.69 62.82 237.79 62.93 239.07 67.18 239.07 67.18L238.03 67.3H238.02ZM236.73 56.54 235.8 52.33 237.52 52.55 237.88 55.74 239.94 60.85 236.72 56.53 236.73 56.54ZM138.31 63.91 132.38 58.51 131.96 43.21 126.39 29.89 123.95 26.46 120.26 24.2 110.06 22.24 102.69 23.66 93.94 28.31 76.2 13.44 57.74 0 56.59 3.82 74.9 17.1 87.09 28.65 62.97 15.99 60.25 17.78 87.72 34.18 87.65 34.53 71.11 28.04 56.34 20.38 55.33 23.65 80.39 36.89C71.86 35.28 61.88 33.32 61.88 33.32L60.34 36.63 87.77 44.83 88.11 53.31 90.24 64.36 93.21 68.03 101.18 71.88C101.18 71.88 112.4 71.91 113.29 71.3 114.18 70.69 122.08 65.83 122.08 65.83L126.18 61.59C126.18 61.59 128.13 61.19 129.82 61.77 131.51 62.35 138.75 66.32 138.75 66.32 138.75 66.32 145.62 67.51 145.24 67.44 144.87 67.37 138.31 63.92 138.31 63.92V63.91ZM110.11 35.76 110.97 31.28 112.66 28.51 111.19 36.16 108.52 37.97 110.11 35.76ZM102.05 40.21 106.21 31.91 106.05 35.75 103.38 40.07 100.95 43.67 102.05 40.21ZM100.57 48.15 104.86 44.43 100.98 50.55 97.86 52.18 100.57 48.15ZM99.34 58.85 95.44 61.29 95.67 60.08 98.7 57.66 102.3 52.26 99.34 58.85ZM104 65.22 102.2 65.2 104.24 64.49 105.24 63.49 106.35 61.41V63.38L104.01 65.22H104ZM107.79 55.24 106.25 55.85 107.32 54.64 108.08 53.72 108.96 51.41 109.01 53.55 107.78 55.25 107.79 55.24ZM112.58 42.04 110 46.38 107.83 47.61 110.58 42.96C110.58 42.96 113.14 38.57 113.29 38.31 113.44 38.05 112.57 42.04 112.57 42.04H112.58ZM116.51 59.88 114.91 60.15 116.21 59.11C116.21 59.11 117.31 56.74 117.35 56.55 117.39 56.36 117.39 58.69 117.39 58.69L116.52 59.88H116.51ZM117.08 49.87 115.57 50.35 116.94 48.1 117.13 45.62 117.94 47.78 117.09 49.87H117.08ZM119.37 35.41 118.04 37.48 119.07 32.13 119.44 28.52 119.9 30.22 119.37 35.41ZM124.84 45.69 123.65 45.84 124.69 44.81C124.69 44.81 125.05 43.27 125.06 42.88 125.06 42.49 125.59 44.47 125.59 44.47L124.84 45.69Z"/><path fill="#fffaef" d="M61.032 151.11V146.886L61.152 146.25V145.17L61.032 144.51V139.89H62.124V144.534L61.992 145.17V146.238L62.124 146.886V151.11H61.032ZM61.608 145.746C61.776 145.042 62.032 144.426 62.376 143.898C62.728 143.37 63.152 142.958 63.648 142.662C64.152 142.366 64.712 142.218 65.328 142.218C65.984 142.218 66.56 142.366 67.056 142.662C67.552 142.958 67.94 143.37 68.22 143.898C68.5 144.426 68.64 145.042 68.64 145.746C68.64 146.442 68.5 147.058 68.22 147.594C67.94 148.122 67.552 148.538 67.056 148.842C66.56 149.138 65.984 149.286 65.328 149.286C64.712 149.286 64.152 149.138 63.648 148.842C63.152 148.546 62.728 148.134 62.376 147.606C62.032 147.07 61.776 146.45 61.608 145.746ZM67.512 145.746C67.512 145.234 67.412 144.782 67.212 144.39C67.012 143.998 66.732 143.694 66.372 143.478C66.02 143.254 65.612 143.142 65.148 143.142C64.444 143.142 63.828 143.386 63.3 143.874C62.78 144.354 62.368 144.978 62.064 145.746C62.368 146.514 62.78 147.142 63.3 147.63C63.828 148.118 64.444 148.362 65.148 148.362C65.612 148.362 66.02 148.25 66.372 148.026C66.732 147.802 67.012 147.494 67.212 147.102C67.412 146.71 67.512 146.258 67.512 145.746ZM61.548 145.746C61.38 146.45 61.12 147.07 60.768 147.606C60.424 148.134 60 148.546 59.496 148.842C59 149.138 58.444 149.286 57.828 149.286C57.172 149.286 56.596 149.138 56.1 148.842C55.604 148.538 55.216 148.122 54.936 147.594C54.656 147.058 54.516 146.442 54.516 145.746C54.516 145.042 54.656 144.426 54.936 143.898C55.216 143.37 55.604 142.958 56.1 142.662C56.596 142.366 57.172 142.218 57.828 142.218C58.444 142.218 59 142.366 59.496 142.662C60 142.958 60.424 143.37 60.768 143.898C61.12 144.426 61.38 145.042 61.548 145.746ZM55.644 145.746C55.644 146.258 55.744 146.71 55.944 147.102C56.144 147.494 56.42 147.802 56.772 148.026C57.132 148.25 57.544 148.362 58.008 148.362C58.72 148.362 59.336 148.118 59.856 147.63C60.376 147.142 60.788 146.514 61.092 145.746C60.788 144.978 60.376 144.354 59.856 143.874C59.336 143.386 58.72 143.142 58.008 143.142C57.544 143.142 57.132 143.254 56.772 143.478C56.42 143.694 56.144 143.998 55.944 144.39C55.744 144.782 55.644 145.234 55.644 145.746ZM73.6163 149.286C72.8403 149.286 72.1523 149.138 71.5523 148.842C70.9603 148.538 70.4923 148.122 70.1483 147.594C69.8123 147.058 69.6443 146.442 69.6443 145.746C69.6443 145.042 69.8043 144.426 70.1243 143.898C70.4443 143.37 70.8883 142.958 71.4563 142.662C72.0243 142.366 72.6763 142.218 73.4123 142.218C74.1403 142.218 74.7763 142.378 75.3203 142.698C75.8643 143.018 76.2843 143.47 76.5803 144.054C76.8843 144.63 77.0363 145.302 77.0363 146.07H70.4843V145.194H76.5683L75.9203 145.59C75.8963 145.086 75.7763 144.65 75.5603 144.282C75.3443 143.914 75.0523 143.63 74.6843 143.43C74.3163 143.23 73.8883 143.13 73.4003 143.13C72.8723 143.13 72.4123 143.238 72.0203 143.454C71.6283 143.662 71.3203 143.958 71.0963 144.342C70.8803 144.726 70.7723 145.178 70.7723 145.698C70.7723 146.242 70.8963 146.714 71.1443 147.114C71.3923 147.514 71.7403 147.822 72.1883 148.038C72.6363 148.254 73.1643 148.362 73.7723 148.362C74.3243 148.362 74.8643 148.27 75.3923 148.086C75.9283 147.902 76.4083 147.65 76.8323 147.33V148.194C76.4163 148.53 75.9203 148.798 75.3443 148.998C74.7683 149.19 74.1923 149.286 73.6163 149.286ZM78.4078 142.374H79.5118V144.93L79.4518 145.146V146.238L79.5118 146.586V151.11H78.4078V142.374ZM78.9958 145.746C79.1718 145.042 79.4398 144.426 79.7998 143.898C80.1678 143.37 80.6078 142.958 81.1198 142.662C81.6398 142.366 82.2118 142.218 82.8358 142.218C83.4998 142.218 84.0878 142.366 84.5998 142.662C85.1118 142.958 85.5118 143.37 85.7998 143.898C86.0958 144.426 86.2438 145.042 86.2438 145.746C86.2438 146.442 86.0958 147.058 85.7998 147.594C85.5118 148.122 85.1118 148.538 84.5998 148.842C84.0878 149.138 83.4998 149.286 82.8358 149.286C82.2118 149.286 81.6398 149.138 81.1198 148.842C80.6078 148.546 80.1678 148.134 79.7998 147.606C79.4398 147.07 79.1718 146.45 78.9958 145.746ZM85.1158 145.746C85.1158 145.234 85.0078 144.782 84.7918 144.39C84.5838 143.998 84.2918 143.694 83.9158 143.478C83.5478 143.254 83.1278 143.142 82.6558 143.142C82.1758 143.142 81.7318 143.254 81.3238 143.478C80.9238 143.694 80.5678 143.998 80.2558 144.39C79.9438 144.782 79.6838 145.234 79.4758 145.746C79.6838 146.258 79.9438 146.71 80.2558 147.102C80.5678 147.494 80.9238 147.802 81.3238 148.026C81.7318 148.242 82.1758 148.35 82.6558 148.35C83.1278 148.35 83.5478 148.242 83.9158 148.026C84.2918 147.802 84.5838 147.494 84.7918 147.102C85.0078 146.71 85.1158 146.258 85.1158 145.746ZM87.6422 149.13V142.374H89.2742L92.4902 148.674H91.9142L95.1182 142.374H96.7502V149.13H95.7062V142.686H96.0782L92.7422 149.13H91.6502L88.3142 142.698H88.6862V149.13H87.6422ZM102.116 149.286C101.34 149.286 100.652 149.138 100.052 148.842C99.4603 148.538 98.9923 148.122 98.6483 147.594C98.3123 147.058 98.1443 146.442 98.1443 145.746C98.1443 145.042 98.3043 144.426 98.6243 143.898C98.9443 143.37 99.3883 142.958 99.9563 142.662C100.524 142.366 101.176 142.218 101.912 142.218C102.64 142.218 103.276 142.378 103.82 142.698C104.364 143.018 104.784 143.47 105.08 144.054C105.384 144.63 105.536 145.302 105.536 146.07H98.9843V145.194H105.068L104.42 145.59C104.396 145.086 104.276 144.65 104.06 144.282C103.844 143.914 103.552 143.63 103.184 143.43C102.816 143.23 102.388 143.13 101.9 143.13C101.372 143.13 100.912 143.238 100.52 143.454C100.128 143.662 99.8203 143.958 99.5963 144.342C99.3803 144.726 99.2723 145.178 99.2723 145.698C99.2723 146.242 99.3963 146.714 99.6443 147.114C99.8923 147.514 100.24 147.822 100.688 148.038C101.136 148.254 101.664 148.362 102.272 148.362C102.824 148.362 103.364 148.27 103.892 148.086C104.428 147.902 104.908 147.65 105.332 147.33V148.194C104.916 148.53 104.42 148.798 103.844 148.998C103.268 149.19 102.692 149.286 102.116 149.286ZM106.908 142.374H108.012V144.93L107.952 145.146V146.238L108.012 146.586V151.11H106.908V142.374ZM107.496 145.746C107.672 145.042 107.94 144.426 108.3 143.898C108.668 143.37 109.108 142.958 109.62 142.662C110.14 142.366 110.712 142.218 111.336 142.218C112 142.218 112.588 142.366 113.1 142.662C113.612 142.958 114.012 143.37 114.3 143.898C114.596 144.426 114.744 145.042 114.744 145.746C114.744 146.442 114.596 147.058 114.3 147.594C114.012 148.122 113.612 148.538 113.1 148.842C112.588 149.138 112 149.286 111.336 149.286C110.712 149.286 110.14 149.138 109.62 148.842C109.108 148.546 108.668 148.134 108.3 147.606C107.94 147.07 107.672 146.45 107.496 145.746ZM113.616 145.746C113.616 145.234 113.508 144.782 113.292 144.39C113.084 143.998 112.792 143.694 112.416 143.478C112.048 143.254 111.628 143.142 111.156 143.142C110.676 143.142 110.232 143.254 109.824 143.478C109.424 143.694 109.068 143.998 108.756 144.39C108.444 144.782 108.184 145.234 107.976 145.746C108.184 146.258 108.444 146.71 108.756 147.102C109.068 147.494 109.424 147.802 109.824 148.026C110.232 148.242 110.676 148.35 111.156 148.35C111.628 148.35 112.048 148.242 112.416 148.026C112.792 147.802 113.084 147.494 113.292 147.102C113.508 146.71 113.616 146.258 113.616 145.746ZM123.318 146.562C123.23 147.098 123.01 147.57 122.658 147.978C122.314 148.386 121.874 148.706 121.338 148.938C120.802 149.17 120.21 149.286 119.562 149.286C118.81 149.286 118.146 149.138 117.57 148.842C116.994 148.538 116.542 148.122 116.214 147.594C115.894 147.058 115.734 146.442 115.734 145.746C115.734 145.05 115.894 144.438 116.214 143.91C116.542 143.374 116.994 142.958 117.57 142.662C118.146 142.366 118.81 142.218 119.562 142.218C120.21 142.218 120.802 142.334 121.338 142.566C121.874 142.79 122.314 143.106 122.658 143.514C123.01 143.922 123.23 144.398 123.318 144.942H122.178C122.058 144.382 121.758 143.942 121.278 143.622C120.806 143.294 120.234 143.13 119.562 143.13C119.018 143.13 118.542 143.238 118.134 143.454C117.734 143.67 117.422 143.974 117.198 144.366C116.974 144.75 116.862 145.21 116.862 145.746C116.862 146.282 116.974 146.746 117.198 147.138C117.422 147.53 117.734 147.834 118.134 148.05C118.542 148.258 119.018 148.362 119.562 148.362C120.242 148.362 120.818 148.198 121.29 147.87C121.77 147.542 122.066 147.106 122.178 146.562H123.318ZM124.627 149.13V142.374H125.731V148.782L125.287 148.254H128.443C128.923 148.254 129.303 148.134 129.583 147.894C129.863 147.646 130.003 147.314 130.003 146.898C130.003 146.474 129.863 146.142 129.583 145.902C129.303 145.654 128.923 145.53 128.443 145.53H125.371V144.678H128.539C129.059 144.678 129.511 144.77 129.895 144.954C130.287 145.138 130.591 145.398 130.807 145.734C131.023 146.07 131.131 146.458 131.131 146.898C131.131 147.346 131.023 147.738 130.807 148.074C130.591 148.41 130.287 148.67 129.895 148.854C129.511 149.038 129.059 149.13 128.539 149.13H124.627ZM132.326 149.13V142.374H133.43V148.134L133.094 148.014L137.774 142.374H139.058L133.346 149.13H132.326ZM137.966 149.13L135.734 145.758L136.454 144.93L139.286 149.13H137.966ZM143.448 149.286C142.672 149.286 141.984 149.138 141.384 148.842C140.792 148.538 140.324 148.122 139.98 147.594C139.644 147.058 139.476 146.442 139.476 145.746C139.476 145.042 139.636 144.426 139.956 143.898C140.276 143.37 140.72 142.958 141.288 142.662C141.856 142.366 142.508 142.218 143.244 142.218C143.972 142.218 144.608 142.378 145.152 142.698C145.696 143.018 146.116 143.47 146.412 144.054C146.716 144.63 146.868 145.302 146.868 146.07H140.316V145.194H146.4L145.752 145.59C145.728 145.086 145.608 144.65 145.392 144.282C145.176 143.914 144.884 143.63 144.516 143.43C144.148 143.23 143.72 143.13 143.232 143.13C142.704 143.13 142.244 143.238 141.852 143.454C141.46 143.662 141.152 143.958 140.928 144.342C140.712 144.726 140.604 145.178 140.604 145.698C140.604 146.242 140.728 146.714 140.976 147.114C141.224 147.514 141.572 147.822 142.02 148.038C142.468 148.254 142.996 148.362 143.604 148.362C144.156 148.362 144.696 148.27 145.224 148.086C145.76 147.902 146.24 147.65 146.664 147.33V148.194C146.248 148.53 145.752 148.798 145.176 148.998C144.6 149.19 144.024 149.286 143.448 149.286ZM156.62 142.374V143.274H152.144L152.66 142.77V149.13H151.556V142.374H156.62ZM160.852 149.286C160.06 149.286 159.36 149.138 158.752 148.842C158.152 148.546 157.684 148.13 157.348 147.594C157.012 147.058 156.844 146.442 156.844 145.746C156.844 145.042 157.012 144.426 157.348 143.898C157.684 143.37 158.152 142.958 158.752 142.662C159.36 142.366 160.06 142.218 160.852 142.218C161.652 142.218 162.352 142.366 162.952 142.662C163.552 142.958 164.02 143.37 164.356 143.898C164.7 144.426 164.872 145.042 164.872 145.746C164.872 146.442 164.7 147.058 164.356 147.594C164.02 148.13 163.552 148.546 162.952 148.842C162.352 149.138 161.652 149.286 160.852 149.286ZM160.852 148.362C161.444 148.362 161.956 148.258 162.388 148.05C162.82 147.834 163.152 147.53 163.384 147.138C163.624 146.746 163.744 146.282 163.744 145.746C163.744 145.218 163.624 144.758 163.384 144.366C163.152 143.974 162.82 143.67 162.388 143.454C161.956 143.238 161.444 143.13 160.852 143.13C160.268 143.13 159.756 143.238 159.316 143.454C158.884 143.67 158.552 143.974 158.32 144.366C158.088 144.758 157.972 145.218 157.972 145.746C157.972 146.282 158.088 146.746 158.32 147.138C158.552 147.53 158.884 147.834 159.316 148.05C159.756 148.258 160.268 148.362 160.852 148.362ZM173.428 146.562C173.34 147.098 173.12 147.57 172.768 147.978C172.424 148.386 171.984 148.706 171.448 148.938C170.912 149.17 170.32 149.286 169.672 149.286C168.92 149.286 168.256 149.138 167.68 148.842C167.104 148.538 166.652 148.122 166.324 147.594C166.004 147.058 165.844 146.442 165.844 145.746C165.844 145.05 166.004 144.438 166.324 143.91C166.652 143.374 167.104 142.958 167.68 142.662C168.256 142.366 168.92 142.218 169.672 142.218C170.32 142.218 170.912 142.334 171.448 142.566C171.984 142.79 172.424 143.106 172.768 143.514C173.12 143.922 173.34 144.398 173.428 144.942H172.288C172.168 144.382 171.868 143.942 171.388 143.622C170.916 143.294 170.344 143.13 169.672 143.13C169.128 143.13 168.652 143.238 168.244 143.454C167.844 143.67 167.532 143.974 167.308 144.366C167.084 144.75 166.972 145.21 166.972 145.746C166.972 146.282 167.084 146.746 167.308 147.138C167.532 147.53 167.844 147.834 168.244 148.05C168.652 148.258 169.128 148.362 169.672 148.362C170.352 148.362 170.928 148.198 171.4 147.87C171.88 147.542 172.176 147.106 172.288 146.562H173.428ZM181.6 142.374V149.13H180.496V142.758L181 143.262H175.324L175.84 142.758V149.13H174.736V142.374H181.6ZM186.984 149.286C186.192 149.286 185.492 149.138 184.884 148.842C184.284 148.546 183.816 148.13 183.48 147.594C183.144 147.058 182.976 146.442 182.976 145.746C182.976 145.042 183.144 144.426 183.48 143.898C183.816 143.37 184.284 142.958 184.884 142.662C185.492 142.366 186.192 142.218 186.984 142.218C187.784 142.218 188.484 142.366 189.084 142.662C189.684 142.958 190.152 143.37 190.488 143.898C190.832 144.426 191.004 145.042 191.004 145.746C191.004 146.442 190.832 147.058 190.488 147.594C190.152 148.13 189.684 148.546 189.084 148.842C188.484 149.138 187.784 149.286 186.984 149.286ZM186.984 148.362C187.576 148.362 188.088 148.258 188.52 148.05C188.952 147.834 189.284 147.53 189.516 147.138C189.756 146.746 189.876 146.282 189.876 145.746C189.876 145.218 189.756 144.758 189.516 144.366C189.284 143.974 188.952 143.67 188.52 143.454C188.088 143.238 187.576 143.13 186.984 143.13C186.4 143.13 185.888 143.238 185.448 143.454C185.016 143.67 184.684 143.974 184.452 144.366C184.22 144.758 184.104 145.218 184.104 145.746C184.104 146.282 184.22 146.746 184.452 147.138C184.684 147.53 185.016 147.834 185.448 148.05C185.888 148.258 186.4 148.362 186.984 148.362ZM200.443 148.23V150.882H199.459V149.13H192.259V150.882H191.287V148.23H192.763L193.087 148.242H198.379L198.703 148.23H200.443ZM192.847 142.374H199.171V148.806H198.067V142.758L198.583 143.262H193.435L193.903 142.902C193.943 143.262 193.971 143.618 193.987 143.97C194.003 144.314 194.011 144.638 194.011 144.942C194.011 146.142 193.867 147.09 193.579 147.786C193.299 148.474 192.911 148.818 192.415 148.818L191.959 148.422C192.631 147.918 192.967 146.69 192.967 144.738C192.967 144.362 192.955 143.974 192.931 143.574C192.915 143.166 192.887 142.766 192.847 142.374ZM207.875 149.13L207.635 146.574L207.935 145.746L207.635 144.93L207.875 142.374H209.003L208.691 145.746L209.003 149.13H207.875ZM208.307 145.746C208.131 146.45 207.859 147.07 207.491 147.606C207.131 148.134 206.691 148.546 206.171 148.842C205.659 149.138 205.091 149.286 204.467 149.286C203.803 149.286 203.215 149.138 202.703 148.842C202.191 148.538 201.787 148.122 201.491 147.594C201.203 147.058 201.059 146.442 201.059 145.746C201.059 145.042 201.203 144.426 201.491 143.898C201.787 143.37 202.191 142.958 202.703 142.662C203.215 142.366 203.803 142.218 204.467 142.218C205.091 142.218 205.659 142.366 206.171 142.662C206.691 142.958 207.135 143.37 207.503 143.898C207.871 144.426 208.139 145.042 208.307 145.746ZM202.187 145.746C202.187 146.258 202.291 146.71 202.499 147.102C202.715 147.494 203.007 147.802 203.375 148.026C203.751 148.242 204.175 148.35 204.647 148.35C205.127 148.35 205.567 148.242 205.967 148.026C206.375 147.802 206.735 147.494 207.047 147.102C207.367 146.71 207.627 146.258 207.827 145.746C207.627 145.234 207.367 144.782 207.047 144.39C206.735 143.998 206.375 143.694 205.967 143.478C205.567 143.254 205.127 143.142 204.647 143.142C204.175 143.142 203.751 143.254 203.375 143.478C203.007 143.694 202.715 143.998 202.499 144.39C202.291 144.782 202.187 145.234 202.187 145.746ZM210.654 142.374H211.758V144.93L211.698 145.146V146.238L211.758 146.586V151.11H210.654V142.374ZM211.242 145.746C211.418 145.042 211.686 144.426 212.046 143.898C212.414 143.37 212.854 142.958 213.366 142.662C213.886 142.366 214.458 142.218 215.082 142.218C215.746 142.218 216.334 142.366 216.846 142.662C217.358 142.958 217.758 143.37 218.046 143.898C218.342 144.426 218.49 145.042 218.49 145.746C218.49 146.442 218.342 147.058 218.046 147.594C217.758 148.122 217.358 148.538 216.846 148.842C216.334 149.138 215.746 149.286 215.082 149.286C214.458 149.286 213.886 149.138 213.366 148.842C212.854 148.546 212.414 148.134 212.046 147.606C211.686 147.07 211.418 146.45 211.242 145.746ZM217.362 145.746C217.362 145.234 217.254 144.782 217.038 144.39C216.83 143.998 216.538 143.694 216.162 143.478C215.794 143.254 215.374 143.142 214.902 143.142C214.422 143.142 213.978 143.254 213.57 143.478C213.17 143.694 212.814 143.998 212.502 144.39C212.19 144.782 211.93 145.234 211.722 145.746C211.93 146.258 212.19 146.71 212.502 147.102C212.814 147.494 213.17 147.802 213.57 148.026C213.978 148.242 214.422 148.35 214.902 148.35C215.374 148.35 215.794 148.242 216.162 148.026C216.538 147.802 216.83 147.494 217.038 147.102C217.254 146.71 217.362 146.258 217.362 145.746ZM227.064 146.562C226.976 147.098 226.756 147.57 226.404 147.978C226.06 148.386 225.62 148.706 225.084 148.938C224.548 149.17 223.956 149.286 223.308 149.286C222.556 149.286 221.892 149.138 221.316 148.842C220.74 148.538 220.288 148.122 219.96 147.594C219.64 147.058 219.48 146.442 219.48 145.746C219.48 145.05 219.64 144.438 219.96 143.91C220.288 143.374 220.74 142.958 221.316 142.662C221.892 142.366 222.556 142.218 223.308 142.218C223.956 142.218 224.548 142.334 225.084 142.566C225.62 142.79 226.06 143.106 226.404 143.514C226.756 143.922 226.976 144.398 227.064 144.942H225.924C225.804 144.382 225.504 143.942 225.024 143.622C224.552 143.294 223.98 143.13 223.308 143.13C222.764 143.13 222.288 143.238 221.88 143.454C221.48 143.67 221.168 143.974 220.944 144.366C220.72 144.75 220.608 145.21 220.608 145.746C220.608 146.282 220.72 146.746 220.944 147.138C221.168 147.53 221.48 147.834 221.88 148.05C222.288 148.258 222.764 148.362 223.308 148.362C223.988 148.362 224.564 148.198 225.036 147.87C225.516 147.542 225.812 147.106 225.924 146.562H227.064ZM230.229 142.746H231.333V149.13H230.229V142.746ZM227.301 142.374H234.261V143.274H227.301V142.374ZM235.166 149.13L235.478 145.746L235.166 142.374H239.75C240.406 142.374 240.914 142.526 241.274 142.83C241.642 143.126 241.826 143.546 241.826 144.09C241.826 144.586 241.642 144.982 241.274 145.278C240.914 145.566 240.414 145.734 239.774 145.782L239.882 145.554C240.65 145.562 241.238 145.718 241.646 146.022C242.054 146.318 242.258 146.742 242.258 147.294C242.258 147.87 242.05 148.322 241.634 148.65C241.226 148.97 240.654 149.13 239.918 149.13H235.166ZM236.246 148.806L235.826 148.29H239.738C240.21 148.29 240.558 148.198 240.782 148.014C241.014 147.83 241.13 147.566 241.13 147.222C241.13 146.87 240.99 146.594 240.71 146.394C240.438 146.194 240.01 146.094 239.426 146.094H236.09V145.302H239.354C239.794 145.302 240.126 145.202 240.35 145.002C240.582 144.802 240.698 144.538 240.698 144.21C240.698 143.898 240.594 143.654 240.386 143.478C240.186 143.294 239.874 143.202 239.45 143.202H235.838L236.246 142.698L236.546 145.746L236.246 148.806ZM247.242 149.286C246.45 149.286 245.75 149.138 245.142 148.842C244.542 148.546 244.074 148.13 243.738 147.594C243.402 147.058 243.234 146.442 243.234 145.746C243.234 145.042 243.402 144.426 243.738 143.898C244.074 143.37 244.542 142.958 245.142 142.662C245.75 142.366 246.45 142.218 247.242 142.218C248.042 142.218 248.742 142.366 249.342 142.662C249.942 142.958 250.41 143.37 250.746 143.898C251.09 144.426 251.262 145.042 251.262 145.746C251.262 146.442 251.09 147.058 250.746 147.594C250.41 148.13 249.942 148.546 249.342 148.842C248.742 149.138 248.042 149.286 247.242 149.286ZM247.242 148.362C247.834 148.362 248.346 148.258 248.778 148.05C249.21 147.834 249.542 147.53 249.774 147.138C250.014 146.746 250.134 146.282 250.134 145.746C250.134 145.218 250.014 144.758 249.774 144.366C249.542 143.974 249.21 143.67 248.778 143.454C248.346 143.238 247.834 143.13 247.242 143.13C246.658 143.13 246.146 143.238 245.706 143.454C245.274 143.67 244.942 143.974 244.71 144.366C244.478 144.758 244.362 145.218 244.362 145.746C244.362 146.282 244.478 146.746 244.71 147.138C244.942 147.53 245.274 147.834 245.706 148.05C246.146 148.258 246.658 148.362 247.242 148.362Z"/></svg>