<svg xmlns="http://www.w3.org/2000/svg" width="154" height="24" fill="none" viewBox="0 0 154 24"><g fill="#123234" clip-path="url(#clip0_109_82)"><path d="M19.92 17.802V16.537L19.765 15.111V13.841 12.415L19.643 11.118V9.724L19.489 8.422 19.367 6.969V5.575L19.213 4.273 19.367 2.847 19.059 1.582V.156L17.645.311 16.115.032H14.548L13.963 1.303 13.411 2.568 12.98 3.838 12.428 4.985 11.726 6.133 11.142 7.274 10.743 8.577 10.037 9.724 9.394 8.486 8.746 7.403 8.347 6.133 7.64 4.985 7.21 3.715 6.658 2.568 5.956 1.426 5.372.156 3.927.311 2.396.032.861.156V1.582L.983 2.847.707 4.273V5.575 6.969 8.298L.553 9.724.43 10.995.553 12.415.276 13.686V15.111L.43 16.382.276 17.802V19.26L0 20.531.154 21.951V23.099L1.259 23.377 2.673 23.222H3.927L5.25 23.377H6.658L6.509 21.951V20.686L6.232 19.539 6.355 18.237 6.078 16.966V15.669 14.398L5.956 13.251V11.981L8.623 14.398H10.037 11.418L14.117 11.981V13.407L13.963 14.833 13.841 16.259V17.652 18.982 20.408L13.687 21.828V23.222L14.946 23.377 16.392 23.222 17.645 23.377 18.937 23.222 20.042 23.099 20.196 21.951V20.531L20.042 19.26 19.92 17.802ZM35.859 21.115 35.764 20.622 35.827 19.877H35.615L35.211 19.909H34.813L34.446 19.85 33.925 19.877 33.463 20 32.82 19.973 32.422 19.941 32.204 19.909 31.715 20 31.375 19.877 31.008 20.064 30.578 20 30.334 19.973 29.935 20 29.659 19.973 29.17 20 28.862 19.973 28.554 20 28.585 19.818 28.49 19.169V18.826L28.431 18.236 28.368 17.834 28.4 17.121 28.309 16.596 28.341 16.317 28.277 15.947 28.341 15.669V15.422L28.155 14.891V14.489L28.585 14.463 29.106 14.489 29.595 14.463 30.089 14.522 30.886 14.489 31.317 14.554 31.869 14.522H32.48L33.219 14.489 33.925 14.554 34.292 14.489 34.233 14.152 34.26 13.498 34.202 12.913 34.292 12.045 34.202 11.643 34.233 11.144 34.079 10.683 34.048 10.217 34.111 9.601 34.17 9.322V8.641 8.421L33.862 8.362 33.617 8.421H33.187L32.756 8.389 32.268 8.421 31.869 8.453 31.375 8.421 31.131 8.389 30.642 8.421 30.121 8.389 29.717 8.453 29.228 8.362 28.862 8.33 28.463 8.362 28.309 8.453 28.187 8.421H28.033V8.207L28.001 8.051V7.682L27.911 7.028 28.001 6.567 27.788 5.757 27.969 5.387 27.815 5.076V4.83L27.757 4.583 27.788 4.396V4.272L28.277 4.181 29.691 4.304 31.348 4.149 32.544 4.181 33.803 4.272 34.536 4.213 34.935 4.272 34.967 3.779 34.908 3.345V2.568L34.935 2.23 34.908 1.828 34.813 1.27 34.845.649 34.813.155 33.096.091 32.082.123 31.072 0 29.813.155 28.984.091 27.512.155H25.977L24.441.091 23.798.155 23.766.836 23.58 1.764 23.734 2.262 23.522 3.345 23.734 4.272 23.458 5.173 23.58 6.347 23.214 7.151 23.426 7.896 23.246 9.043 23.304 11.766 23.092 14.152 22.906 15.39 22.996 16.537V17.523L22.693 18.515 22.906 19.475 22.847 21.088 22.783 23.377 25.977 23.5 29.292 23.377 32.634 23.5 35.827 23.377 35.891 22.82 35.796 21.49 35.859 21.115ZM65.731 16.66H69.381L69.471 16.135V15.61L69.593 15.052 69.684 13.969V13.444L70.236 13.289H71.432L72.075 13.444 72.165 15.61 72.287 16.135V16.66H73.456L74.009 16.569H74.561L75.204 16.66 75.725 16.569 75.815 16.167 75.725 15.052V14.527L75.512 13.535V12.452L75.422 11.895V9.853L75.3 9.295 75.087 7.129V5.612L74.997 4.53V3.447L74.662.815V.289L74.11.134 73.589.225H68.217L65.608.289 65.518.815V1.93L65.396 2.364V3.972L65.305 4.53V6.604L65.183 8.743 64.971 12.458 64.88 12.983 64.758 15.058V16.14L64.668 16.666H65.741L65.731 16.66ZM69.386 8.947V8.421L69.476 7.864V7.338L69.599 6.813 69.689 5.173 69.599 4.615 69.689 4.09H70.364L70.916 3.967 71.437 4.181 71.559 4.615 71.65 5.73V8.952L71.772 9.542H69.375V8.952L69.386 8.947Z"/><path d="M75.953 18.36 74.482 18.392 73.004 18.456 71.565 18.515 70.151 18.269 68.648 18.36 67.176 18.177 65.704 17.743 64.413 17.062 63.308 16.039 62.543 14.741 61.926 13.374 61.342 11.954 60.667 10.56 60.911 10.373 61.714 9.199 62.723 8.143V6.502L63.063 5.017V3.377L63.154 1.796 63.308.343 61.836.37 60.391.155 58.855.279 58.733 1.796V3.377L58.584 4.921 58.611 6.47 57.569 7.462 56.677 8.668 55.635 9.627 54.716 10.839 54.53 9.29V7.773L54.482 7.183V7.028L54.44 6.717 54.408 6.315 54.344 4.771 54.408 3.281 54.132 1.731V.343L54.11.338V.064L52.809.198 52.686.188 52.187.214H51.199L49.568.064V1.517 2.787 3.656L49.52 4.503 49.387 5.575 49.201 6.845V8.11 9.413 10.866L48.096 9.783 47.209 8.486 46.103 7.585 45.211 6.47V5.2 3.902L45.03 2.632 45.211 1.517 45.03.214 43.399.434 41.959.214H40.487V1.517L40.668 2.787V4.085L40.854 5.355 41.008 6.845V8.11L42.113 9.043 42.846 10.34 42.113 11.611 41.746 12.881 41.22 14.184 40.487 15.293 39.935 16.564 39.414 17.834 38.861 19.137 38.309 20.22 37.57 21.49 38.675 22.45 39.749 23.345H40.854 41.959L43.032 23.163 43.553 21.892 43.739 20.59 44.292 19.319 44.504 17.834 45.03 16.564 45.397 15.079 45.763 13.996 46.502 14.741 47.209 15.824 47.942 16.752 48.648 17.652V19.137 20.407L48.494 21.892V23.345H49.94L50.242 23.302 50.418 23.318 51.613 23.222 52.485 23.345H53.361L53.643 23.377 54.456 23.345H55.035V23.323L55.269 23.318V21.892L55.083 20.466 54.982 19.539 55.035 19.137 54.945 18.831 55.051 17.62 55.821 16.564 56.618 15.572 57.506 14.677 57.904 16.039 58.276 17.497 59.009 18.735 59.96 19.941 61.161 20.868 62.293 21.828 63.738 22.262 65.12 22.696 66.591 22.943 68.037 23.222 69.508 23.189 70.858 23.409 72.239 23.222 73.621 23.377H75.002L76.288 23.318V21.737L76.012 20.032 75.953 18.36ZM97.499 20.901 97.345 19.786H95.968L94.555 19.941H93.142L93.296 18.515 92.988 17.154V15.915L92.68 14.489 92.834 13.251 92.68 12.013 92.531 10.587V9.322L92.377 7.928V6.717L92.223 5.478V4.213L93.604 4.058 95.198 4.213 96.579 4.058 96.425 2.787V1.549.155L95.044.311H93.758L92.531 0 91.33.155H90.103 88.843 87.616L87.462 1.549V2.787 4.213 5.478L87.313 6.872 87.462 8.084 87.159 9.322 87.313 10.742 87.005 12.013 87.313 13.407 87.159 14.645 87.005 16.071V17.309L86.851 18.671 87.005 19.941 86.851 21.367 87.77 22.45 88.997 23.377 90.257 23.066 91.484 23.222H92.68 93.939 95.198L96.271 23.377H97.653L97.345 22.139 97.499 20.901ZM114.23 18.392 114.14 17.186V14.645L113.986 13.315 113.741 12.168 112.328 11.177 113.741 9.938 113.555 8.609V7.215L113.401 5.913 113.157 4.487 113.035 3.002 112.912 1.608 112.115.772 111.132 0H109.937L108.742.155H105.182L104.905 0 103.588.279 102.084.155H100.612V2.879L100.368 4.272 100.49 5.602 100.368 6.931 100.182 8.293V11.048L100.06 12.377 99.906 13.771 100.06 15.133 99.906 16.494V17.856L99.815 19.217V20.579L99.661 21.94V23.457L101.133 23.302H105.49L106.717 23.457 107.913 23.581 109.14 23.302H111.536L112.487 22.466 113.561 21.817 114.512 20.89 114.358 19.587 114.235 18.381 114.23 18.392ZM108.428 19.941 107.201 20.064H106.005L105.607 19.475 105.484 17.743V16.349L105.176 14.988V13.626L105.729 13.069 106.924 13.315 108.152 13.192 108.582 13.782 108.858 15.143V16.628L108.981 18.022 109.135 19.603 108.428 19.946V19.941ZM108.582 9.536H107.323L106.127 9.258 105.607 9.011V8.453L105.299 7.06V5.73L105.176 4.401 105.729 4.058 106.924 3.935H108.306L108.736 4.492 108.858 6.041V7.558L109.135 9.016 108.582 9.542V9.536ZM122.753 20.654V19.26 17.899 16.537L122.567 15.17V13.809L122.354 12.447 122.168 11.085 122.354 9.724 122.168 8.362V6.995L121.988 5.634 122.168 4.272 121.77 2.879V1.549.155H120.234L118.672.37 117.349.155V1.549L117.136 2.879V4.272L116.951 5.634V6.995 8.362 9.724L116.77 11.085V12.447 13.809 15.17 16.537L116.552 17.899V19.26 20.654L116.371 22.015V23.377H117.753 119.071L120.234 23.565 121.589 23.377H122.939L122.753 22.015V20.654ZM153.819 19.196 154.005 17.834 153.819 16.532V15.17L153.633 13.809V12.538L153.421 11.177V6.995L153.235 5.634 153.049 4.272V.123H151.758L150.408.311 149.059.123H147.953L146.604.311H145.313L143.963.123H142.614L141.323.311 141.535 1.614 141.323 2.975V4.278L141.137 5.639V8.303L140.951 9.665 141.137 10.968 140.951 12.549 140.765 13.819V19.207L140.552 20.509 140.366 21.871V23.388L141.902 23.232 143.193 23.388 144.76 23.232 146.232 23.388 146.019 22.085 146.232 20.724V19.421L146.418 18.059V16.757H149.643V18.059L149.829 19.421V23.382L151.179 23.227 152.65 23.382 154 23.227V22.08L153.814 20.498V19.196H153.819ZM149.245 9.66V11.177L147.773 10.962 146.025 11.177 146.237 9.66V8.298L146.423 6.995V4.149L147.773 3.961 148.878 4.149 149.064 5.452V7.001L149.25 8.303V9.665L149.245 9.66ZM138.591 17.931 138.411 16.628V15.293L138.225 13.964V12.635 11.3 9.938L138.044 8.421 138.225 7.092 137.858 5.789V4.46 3.125 1.764.434L136.355.247 134.851.434H133.501L133.161 1.104V4.026L133.124 4.621 133.161 4.642 132.975 6.165V7.494 8.823 10.528L132.396 11.118H131.073 129.941L129.389 10.528 129.57 9.199V7.682 6.165L129.686 5.323V3.055L130.032 1.721 129.756.434H128.438 127.301L126.35 1.206 125.579 1.951 125.399 3.281V4.46L125.213 5.789V6.904L125.059 8.239V9.601 10.716L124.846 12.045 124.66 13.192 125.399 13.964 126.164 14.709H127.481 128.804 130.122L131.259 14.522 132.577 14.709V15.883 17.186L132.396 18.333V19.662 20.992L132.21 22.139V23.286L133.501 23.468 134.851 23.286 136.169 23.468H137.492 138.591V22.139L138.809 20.622 138.411 19.292 138.591 17.931Z"/></g><defs><clipPath id="clip0_109_82"><path fill="#fff" d="M0 0H154V23.5968H0z"/></clipPath></defs></svg>