<svg width="154" height="24" viewBox="0 0 154 24" fill="none" xmlns="http://www.w3.org/2000/svg">
    <g clip-path="url(#clip0_109_82)">
        <path d="M19.9195 17.8023V16.5372L19.7654 15.1114V13.8409V12.4151L19.6432 11.1178V9.7241L19.4891 8.4215L19.3669 6.96882V5.57509L19.2128 4.2725L19.3669 2.84662L19.0587 1.58155V0.155662L17.6454 0.311116L16.1152 0.0323715H14.5477L13.9633 1.3028L13.4107 2.56787L12.9803 3.8383L12.4278 4.98544L11.7264 6.13258L11.1419 7.27436L10.7434 8.57696L10.0368 9.7241L9.39387 8.48583L8.74565 7.40301L8.34716 6.13258L7.64049 4.98544L7.21012 3.71501L6.65753 2.56787L5.95618 1.42609L5.37172 0.155662L3.92651 0.311116L2.39629 0.0323715L0.860751 0.155662V1.58155L0.982956 2.84662L0.706666 4.2725V5.57509V6.96882V8.29821L0.552581 9.7241L0.430375 10.9945L0.552581 12.4151L0.27629 13.6855V15.1114L0.430375 16.3818L0.27629 17.8023V19.2604L0 20.5308L0.154085 21.9513V23.0985L1.25925 23.3772L2.67258 23.2218H3.92651L5.24952 23.3772H6.65753L6.50876 21.9513V20.6862L6.23247 19.5391L6.35468 18.2365L6.07839 16.9661V15.6689V14.3984L5.95618 13.2513V11.9809L8.62345 14.3984H10.0368H11.4182L14.1174 11.9809V13.4067L13.9633 14.8326L13.8411 16.2585V17.6522V18.9816V20.4075L13.687 21.828V23.2218L14.9462 23.3772L16.3915 23.2218L17.6454 23.3772L18.9365 23.2218L20.0417 23.0985L20.1958 21.9513V20.5308L20.0417 19.2604L19.9195 17.8023Z" fill="#123234"/>
        <path d="M35.8593 21.1149L35.7637 20.6217L35.8274 19.8766H35.6149L35.2111 19.9088H34.8126L34.446 19.8498L33.9253 19.8766L33.463 19.9999L32.8201 19.9731L32.4216 19.9409L32.2038 19.9088L31.715 19.9999L31.3749 19.8766L31.0083 20.0642L30.5779 19.9999L30.3335 19.9731L29.935 19.9999L29.6587 19.9731L29.1699 19.9999L28.8617 19.9731L28.5536 19.9999L28.5854 19.8176L28.4898 19.169V18.826L28.4313 18.2363L28.3676 17.8343L28.3995 17.1213L28.3091 16.596L28.341 16.3173L28.2773 15.9474L28.341 15.6686V15.4221L28.1551 14.8914V14.4893L28.5854 14.4625L29.1061 14.4893L29.595 14.4625L30.0891 14.5215L30.8861 14.4893L31.3165 14.5537L31.869 14.5215H32.4801L33.2186 14.4893L33.9253 14.5537L34.2919 14.4893L34.2334 14.1516L34.26 13.4977L34.2016 12.9134L34.2919 12.045L34.2016 11.6429L34.2334 11.1444L34.0794 10.6834L34.0475 10.217L34.1112 9.6006L34.1697 9.32185V8.64107V8.42129L33.8615 8.36233L33.6171 8.42129H33.1867L32.7564 8.38913L32.2675 8.42129L31.869 8.45346L31.3749 8.42129L31.1305 8.38913L30.6417 8.42129L30.121 8.38913L29.7172 8.45346L29.2283 8.36233L28.8617 8.33017L28.4632 8.36233L28.3091 8.45346L28.1869 8.42129H28.0329V8.20687L28.001 8.05142V7.68155L27.9106 7.02757L28.001 6.56657L27.7884 5.75714L27.9691 5.38727L27.815 5.07636V4.82978L27.7566 4.5832L27.7884 4.39558V4.27229L28.2773 4.18116L29.6906 4.30445L31.3483 4.149L32.5438 4.18116L33.8031 4.27229L34.5363 4.21333L34.9348 4.27229L34.9667 3.77913L34.9082 3.34493V2.56766L34.9348 2.22995L34.9082 1.82792L34.8126 1.27043L34.8445 0.648616L34.8126 0.155454L33.0964 0.0911279L32.0816 0.123291L31.072 0L29.8128 0.155454L28.9839 0.0911279L27.5122 0.155454H25.9766L24.4411 0.0911279L23.7982 0.155454L23.7663 0.836233L23.5803 1.76359L23.7344 2.26212L23.5219 3.34493L23.7344 4.27229L23.4581 5.17285L23.5803 6.34679L23.2137 7.15086L23.4262 7.89597L23.2456 9.04311L23.304 11.7662L23.0915 14.1516L22.9055 15.3899L22.9959 16.537V17.5234L22.693 18.5151L22.9055 19.4746L22.8471 21.0881L22.7833 23.377L25.9766 23.5003L29.2921 23.377L32.6341 23.5003L35.8274 23.377L35.8912 22.8195L35.7956 21.4901L35.8593 21.1149Z" fill="#123234"/>
        <path d="M65.7305 16.6603H69.3808L69.4711 16.135V15.6097L69.5933 15.0522L69.6836 13.9694V13.444L70.2362 13.2886H71.4317L72.0746 13.444L72.1649 15.6097L72.2871 16.135V16.6603H73.456L74.0086 16.5692H74.5612L75.2041 16.6603L75.7248 16.5692L75.8151 16.1672L75.7248 15.0522V14.5269L75.5123 13.5352V12.4524L75.4219 11.8949V9.85254L75.2997 9.29505L75.0872 7.12942V5.61241L74.9969 4.52959V3.44678L74.6622 0.81479V0.289464L74.1096 0.13401L73.5889 0.225138H68.2171L65.6083 0.289464L65.518 0.81479V1.92977L65.3958 2.36396V3.9721L65.3055 4.52959V6.60409L65.1833 8.74292L64.9707 12.4577L64.8804 12.983L64.7582 15.0576V16.1404L64.6679 16.6657H65.7412L65.7305 16.6603ZM69.3861 8.94662V8.42129L69.4764 7.8638V7.33848L69.5986 6.81315L69.6889 5.17285L69.5986 4.61536L69.6889 4.09003H70.3637L70.9163 3.96674L71.437 4.18116L71.5592 4.61536L71.6495 5.73034V8.95198L71.7717 9.54163H69.3754V8.95198L69.3861 8.94662Z" fill="#123234"/>
        <path d="M75.9533 18.3596L74.4815 18.3918L73.0044 18.4561L71.5645 18.5151L70.1512 18.2685L68.6475 18.3596L67.1758 18.1773L65.704 17.7431L64.4128 17.0624L63.3077 16.0385L62.5426 14.7413L61.9262 13.3744L61.3418 11.9538L60.667 10.5601L60.9114 10.3725L61.7137 9.19856L62.7232 8.14255V6.50225L63.0633 5.0174V3.3771L63.1536 1.79576L63.3077 0.343071L61.8359 0.369874L60.3907 0.155455L58.8552 0.278746L58.733 1.79576V3.3771L58.5842 4.92091L58.6107 6.47009L57.5693 7.46177L56.6767 8.66788L55.6353 9.6274L54.7161 10.8389L54.5302 9.28969V7.77268L54.4823 7.18303V7.02757L54.4398 6.71667L54.4079 6.31463L54.3442 4.77082L54.4079 3.28061L54.1317 1.73143V0.343071L54.1104 0.337711V0.0643272L52.8087 0.198339L52.6864 0.187618L52.187 0.21442H51.1987L49.5676 0.0643272V1.51701V2.78744V3.65584L49.5197 4.50279L49.3869 5.57489L49.2009 6.84532V8.11039V9.41298V10.8657L48.0958 9.78285L47.2085 8.48562L46.1033 7.58506L45.2107 6.47009V5.19965V3.90242L45.03 2.63199L45.2107 1.51701L45.03 0.21442L43.3988 0.434199L41.9589 0.21442H40.4872V1.51701L40.6678 2.78744V4.08468L40.8538 5.35511L41.0079 6.84532V8.11039L42.113 9.04311L42.8463 10.3403L42.113 11.6108L41.7464 12.8812L41.2204 14.1838L40.4872 15.2934L39.9346 16.5638L39.4139 17.8343L38.8613 19.1369L38.3087 20.2197L37.5702 21.4901L38.6753 22.4496L39.7486 23.3448H40.8538H41.9589L43.0322 23.1626L43.5529 21.8921L43.7389 20.5896L44.2915 19.3191L44.504 17.8343L45.03 16.5638L45.3966 15.079L45.7632 13.9962L46.5018 14.7413L47.2085 15.8241L47.9417 16.7515L48.6484 17.652V19.1369V20.4073L48.4943 21.8921V23.3448H49.9395L50.2423 23.302L50.4177 23.318L51.6132 23.2215L52.4845 23.3448H53.3612L53.6428 23.377L54.4558 23.3448H55.0349V23.3234L55.2687 23.318V21.8921L55.0827 20.4663L54.9818 19.5389L55.0349 19.1369L54.9446 18.8313L55.0509 17.6199L55.8213 16.5638L56.6183 15.5722L57.5056 14.677L57.9041 16.0385L58.276 17.4966L59.0092 18.7348L59.9603 19.9409L61.1611 20.8683L62.2928 21.8278L63.7381 22.262L65.1195 22.6962L66.5913 22.9428L68.0365 23.2215L69.5083 23.1894L70.8578 23.4092L72.2393 23.2215L73.6208 23.377H75.0022L76.288 23.318V21.7367L76.0117 20.0321L75.9533 18.3596Z" fill="#123234"/>
        <path d="M97.4986 20.9005L97.3445 19.7855H95.9684L94.5551 19.9409H93.1417L93.2958 18.5151L92.9877 17.1535V15.9152L92.6795 14.4893L92.8336 13.2511L92.6795 12.0128L92.5307 10.5869V9.32185L92.3766 7.92813V6.71666L92.2225 5.4784V4.21333L93.604 4.05787L95.198 4.21333L96.5794 4.05787L96.4253 2.78744V1.54918V0.155454L95.0439 0.310907H93.7581L92.5307 0L91.3299 0.155454H90.1025H88.8433H87.6159L87.4618 1.54918V2.78744V4.21333V5.4784L87.3131 6.87212L87.4618 8.08358L87.159 9.32185L87.3131 10.7424L87.0049 12.0128L87.3131 13.4065L87.159 14.6448L87.0049 16.0707V17.3089L86.8508 18.6705L87.0049 19.9409L86.8508 21.3668L87.77 22.4496L88.9974 23.377L90.2566 23.0661L91.484 23.2215H92.6795H93.9387H95.198L96.2713 23.377H97.6527L97.3445 22.1387L97.4986 20.9005Z" fill="#123234"/>
        <path d="M114.23 18.3918L114.14 17.1857V14.6448L113.986 13.3154L113.741 12.1683L112.328 11.1766L113.741 9.9383L113.555 8.60891V7.21519L113.401 5.91259L113.157 4.48671L113.035 3.00186L112.912 1.60814L112.115 0.771907L111.132 0H109.937L108.742 0.155454H105.182L104.905 0L103.588 0.278744L102.084 0.155454H100.612V2.87857L100.368 4.27229L100.49 5.60169L100.368 6.93108L100.182 8.29264V11.0479L100.06 12.3773L99.9055 13.771L100.06 15.1326L99.9055 16.4942V17.8557L99.8152 19.2173V20.5788L99.6611 21.9404V23.4574L101.133 23.3019H105.49L106.717 23.4574L107.913 23.5807L109.14 23.3019H111.536L112.487 22.4657L113.561 21.8171L114.512 20.8897L114.358 19.5871L114.235 18.381L114.23 18.3918ZM108.428 19.9409L107.201 20.0642H106.005L105.607 19.4746L105.484 17.7431V16.3494L105.176 14.9879V13.6263L105.729 13.0688L106.924 13.3154L108.152 13.1921L108.582 13.7818L108.858 15.1433V16.6282L108.981 18.0219L109.135 19.6032L108.428 19.9463V19.9409ZM108.582 9.53627H107.323L106.127 9.25753L105.607 9.01094V8.45346L105.299 7.05973V5.73034L105.176 4.40094L105.729 4.05787L106.924 3.93458H108.306L108.736 4.49207L108.858 6.04125V7.55826L109.135 9.0163L108.582 9.54163V9.53627Z" fill="#123234"/>
        <path d="M122.753 20.6539V19.2602V17.8986V16.537L122.567 15.1701V13.8086L122.354 12.447L122.168 11.0854L122.354 9.72389L122.168 8.36233V6.99541L121.988 5.63385L122.168 4.27229L121.77 2.87857V1.54917V0.155453H120.234L118.672 0.369871L117.349 0.155453V1.54917L117.136 2.87857V4.27229L116.951 5.63385V6.99541V8.36233V9.72389L116.77 11.0854V12.447V13.8086V15.1701V16.537L116.552 17.8986V19.2602V20.6539L116.371 22.0154V23.377H117.753H119.071L120.234 23.5646L121.589 23.377H122.939L122.753 22.0154V20.6539Z" fill="#123234"/>
        <path d="M153.819 19.1958L154.005 17.8343L153.819 16.5317V15.1701L153.633 13.8086V12.5381L153.421 11.1766V6.99541L153.235 5.63385L153.049 4.27229V0.123291H151.758L150.408 0.310907L149.059 0.123291H147.953L146.604 0.310907H145.313L143.963 0.123291H142.614L141.323 0.310907L141.535 1.6135L141.323 2.97506V4.27765L141.137 5.63921V8.30336L140.951 9.66492L141.137 10.9675L140.951 12.5489L140.765 13.8193V19.2066L140.552 20.5091L140.366 21.8707V23.3877L141.902 23.2323L143.193 23.3877L144.76 23.2323L146.232 23.3877L146.019 22.0851L146.232 20.7236V19.421L146.418 18.0594V16.7568H149.643V18.0594L149.829 19.421V23.3824L151.179 23.2269L152.65 23.3824L154 23.2269V22.0798L153.814 20.4984V19.1958H153.819ZM149.245 9.65956V11.1766L147.773 10.9622L146.025 11.1766L146.237 9.65956V8.298L146.423 6.99541V4.149L147.773 3.96139L148.878 4.149L149.064 5.4516V7.00077L149.25 8.30336V9.66492L149.245 9.65956Z" fill="#123234"/>
        <path d="M138.591 17.9308L138.411 16.6282V15.2934L138.225 13.964V12.6346V11.2999V9.93831L138.044 8.42129L138.225 7.0919L137.858 5.7893V4.45991V3.12515V1.76359V0.434198L136.355 0.246582L134.851 0.434198H133.501L133.161 1.10426V4.02571L133.124 4.62072L133.161 4.64216L132.975 6.16454V7.49393V8.82333V10.528L132.396 11.1176H131.073H129.941L129.389 10.528L129.57 9.19856V7.68155V6.16454L129.686 5.32294V3.05547L130.032 1.72071L129.756 0.434198H128.438H127.301L126.35 1.20611L125.579 1.95121L125.399 3.28061V4.45991L125.213 5.7893V6.90428L125.059 8.23904V9.6006V10.7156L124.846 12.045L124.66 13.1921L125.399 13.964L126.164 14.7091H127.481H128.804H130.122L131.259 14.5215L132.577 14.7091V15.8831V17.1857L132.396 18.3328V19.6622V20.9916L132.21 22.1387V23.2859L133.501 23.4681L134.851 23.2859L136.169 23.4681H137.492H138.591V22.1387L138.809 20.6217L138.411 19.2923L138.591 17.9308Z" fill="#123234"/>
    </g>
    <defs>
        <clipPath id="clip0_109_82">
            <rect width="154" height="23.5968" fill="white"/>
        </clipPath>
    </defs>
</svg>
