<svg xmlns="http://www.w3.org/2000/svg" width="138" height="136" fill="none" viewBox="0 0 138 136"><path fill="#123234" fill-rule="evenodd" d="M130.121 135.217H20.2383V119.164H130.121V135.217ZM27.7764 132.053C29.0955 130.742 26.8031 128.295 25.4609 129.879C23.9383 131.676 26.4792 133.342 27.7764 132.053ZM123.545 129.363C121.777 129.521 121.518 132.834 124.05 132.403C126.246 132.03 125.124 129.219 123.545 129.363ZM27.7764 122.328C26.4651 121.028 23.9326 122.736 25.4609 124.501C26.9328 126.202 29.0249 123.568 27.7764 122.328ZM124.904 124.51C126.272 123.123 123.911 121.002 122.583 122.331C121.236 123.678 123.368 126.07 124.904 124.51ZM130.118 97.6137V113.107C129.821 113.896 127.019 113.369 127.019 113.53V117.471H118.004V113.53H32.3525V117.471H23.4785C22.5823 116.981 23.3226 113.797 23.0586 113.53H20.2383L20.2354 113.527V97.4731L130.118 97.6137ZM27.082 110.667C28.7317 110.168 28.1704 107.055 26.0752 107.666C24.2002 108.211 25.035 111.288 27.082 110.667ZM123.996 110.67C126.176 110.247 125.267 107.126 123.282 107.656C121.585 108.11 122.067 111.043 123.996 110.67ZM124.645 102.845C126.672 101.604 124.066 98.8747 122.58 100.361C121.396 101.548 122.713 104.029 124.645 102.845ZM27.0791 103.059C28.9289 102.52 28.1564 99.4557 26.0781 100.062C24.2287 100.601 25.0011 103.665 27.0791 103.059ZM30.4805 62.5629C31.3524 62.9406 35.5152 62.8844 35.7363 63.8256L31.2275 68.4624L36.8584 65.6479L39.9268 71.6655L35.7363 75.5034L40.8008 72.9711L44.2158 79.8764L40.5244 83.3872L44.8701 81.143H44.873L48.0166 86.4897C47.2665 89.6816 45.1971 92.3549 46.1641 95.7836C45.1433 95.6625 43.728 96.0319 42.7891 95.6372C42.5156 95.5216 38.8915 91.436 38.8887 91.1342L42.2197 87.8999L37.8936 90.1049C36.3116 87.835 32.7024 86.3514 33.9795 83.1821C34.4419 82.0316 36.3171 81.4645 36.8643 80.2944C34.7043 80.9909 33.4237 82.965 30.8633 82.2065C30.4224 82.0756 27.031 78.5455 26.8506 78.0239C26.707 77.6042 26.7579 77.6602 26.9834 77.3276C27.8491 76.0587 29.7608 75.0886 30.666 73.8168L25.3193 76.6284L22.3506 72.9516L23.3203 67.2495L30.4805 62.5629ZM32.3525 95.7836H23.4785L23.0557 95.3637V83.9545H32.3525V95.7836ZM96.8711 76.2114L92.1543 80.2211L89.5508 95.7836H85.4648C84.6643 95.0843 84.7066 94.0831 84.7461 93.0991C84.904 89.0499 85.1047 83.8335 85.6094 79.8745C85.7983 78.3856 85.9584 77.807 86.8691 76.6284L86.8721 76.6313C88.8065 74.1329 90.2815 73.7271 93.4229 73.603L96.8711 76.2114ZM112.793 79.7299C112.995 79.7327 115.503 82.3724 115.596 82.561C115.923 83.2321 116.425 86.7062 116.332 87.4848C116.095 89.4474 112.35 93.7842 111.386 95.7836H105.323C105.024 95.4904 108.554 89.23 108.946 88.2797C109.192 87.6904 109.761 86.5829 109.826 86.0415C110.029 84.3242 108.368 81.577 108.425 79.7299H112.793ZM127.021 95.7836H118.007V83.9545H127.021V95.7836ZM97.1592 77.6206C98.1887 77.1469 102.032 77.627 103.186 78.0668C103.711 78.2677 106.557 80.1582 106.894 80.5561C107.415 81.1737 108.359 84.4255 108.41 85.2602L108.408 85.2573C108.535 87.4004 104.634 93.6376 103.492 95.7807H90.6738C91.0827 93.2346 91.4291 90.6659 91.8887 88.1254C92.1904 86.4532 92.7886 82.2199 93.4287 80.934C93.5999 80.5941 96.8209 77.7756 97.1592 77.6206ZM68.1621 82.9702C68.977 82.3526 70.0655 80.9234 71.1455 81.3491C74.3318 82.6067 76.681 86.6132 78.1445 89.5825C79.3232 91.9794 79.1963 92.8459 78.7197 95.5219L48.1162 95.6596L48.1133 95.6626C46.6188 94.6108 48.905 88.9237 49.5791 87.519C50.5717 85.4549 51.7701 83.8894 53.665 82.5922L56.2705 83.7124L55.7402 86.4926L69.5439 85.3647L68.1621 82.9702ZM7.79395 79.6284L6.40918 87.8881L0 82.3637L1.3418 74.6518L7.79395 79.6284ZM50.3633 52.1518C50.5719 52.4508 50.3348 53.3219 49.9795 53.5502L45.0361 56.0688L50.9502 54.6616L52.6133 61.5219L47.0107 64.52L53.2061 63.1127L54.8662 70.5288L50.3916 73.2534L55.4502 72.1391L56.877 78.4702C56.7801 79.2681 53.9356 80.2631 53.0645 80.8608C52.2608 81.4078 50.5916 82.9165 49.957 83.6694C49.5312 84.1741 49.4495 84.8456 48.9814 85.0825L46.748 80.1987L50.9502 77.7651C49.7236 77.7143 46.8386 79.3493 45.877 78.7543L42.2197 71.9838L47.5684 69.0317L41.6387 70.5913L38.0205 64.0942L43.624 60.8627L37.3271 62.5708L34.9893 58.1831L37.3271 52.9467H37.3301L44.918 50.1577L50.3633 52.1518ZM61.5156 72.1508C63.0269 74.2234 63.0418 76.9782 63.6875 79.3891L68.6982 80.2944C68.8589 80.9455 68.5654 80.7594 68.3398 80.937C67.9845 81.219 66.1965 82.1696 66.1768 82.4008L67.0059 83.9516L57.7119 84.7973L58.1572 83.1001L58.1543 83.0971L55.1738 81.5571L60.5264 79.7251C59.9399 77.5933 59.0485 75.7121 57.7148 73.9526L61.5156 72.1508ZM84.6416 68.7329L84.6445 68.7358C84.9315 69.134 83.3274 71.798 83.0596 72.5395C81.7624 76.1151 81.3485 80.4836 81.9463 84.2397L77.3467 84.769C76.4416 83.861 75.8827 82.6966 74.9043 81.8422C74.0949 81.1374 72.6091 80.6096 72.0762 79.8793C71.329 78.8613 70.7878 76.7155 70.0547 75.4213C69.1777 73.8704 67.9511 72.4124 66.7471 71.104L69.127 68.4643L73.6328 73.8139L73.2129 69.0258C74.0871 69.8548 77.8197 68.5275 78.2881 68.8657L78.9824 73.2504L81.6641 67.0551L84.6416 68.7329ZM117.487 64.8442C119.315 64.8188 121.585 64.114 123.373 64.6469C124.101 64.8646 128.113 67.8049 128.559 68.476V68.4702C128.925 69.0229 130.149 72.5819 130.056 73.0698L122.789 82.1127L116.918 82.2172C116.853 82.157 116.799 81.4978 116.483 81.1118C116.336 80.934 113.681 78.5487 113.495 78.4643C112.635 78.078 111.588 78.6865 110.971 77.8969L114.481 71.5922L119.98 74.0903L115.229 69.9506L117.487 64.8442ZM106.555 75.5258L109.553 78.3178C107.855 78.566 106.211 79.1073 105.125 77.3393V77.3364C105.314 76.8627 105.932 75.4108 106.555 75.5258ZM109.55 69.3168L109.375 69.8969C106.73 71.2532 105.199 74.1071 104.212 76.7944L101.944 76.3491H101.941C102.438 73.0358 103.431 69.5732 105.89 67.1792L109.55 69.3168ZM101.102 73.8139C101.037 74.3384 101.369 76.1516 100.692 76.2729C98.9554 76.1826 97.5938 75.221 96.5928 73.8139H101.102ZM69.6426 47.437C72.1156 45.1557 76.3904 45.4013 78.7422 47.7192C79.0524 48.0266 80.0174 49.5826 80.1641 49.6108C83.1444 48.8805 84.2162 48.6611 86.582 50.728C89.1393 52.964 87.7349 54.2587 88.5498 55.5219C88.7616 55.8489 89.8872 55.9499 90.375 56.2319C91.0942 56.6496 92.9719 58.8463 93.1523 59.6499C94.8611 67.3002 85.6458 70.7373 81.2383 64.8071C78.1618 68.7465 73.1876 69.2963 69.4033 65.935C66.6144 73.2667 55.6255 70.974 56.9932 63.0981C57.5094 60.1237 60.1618 59.3339 60.4834 58.4204C60.8274 57.4363 60.1118 56.4325 60.2979 55.4399C60.4078 54.8421 62.2804 52.0675 62.7598 51.684C64.2261 50.5138 66.6851 51.4042 67.5762 50.8627C67.9487 50.6327 68.8646 48.1559 69.6426 47.437ZM96.8799 56.0688C97.672 55.7897 97.9515 52.4757 98.4531 52.3891L103.075 53.8188L101.665 58.0395C102.195 58.1607 102.337 57.744 102.652 57.479C103.278 56.9546 105.88 54.2117 106.329 54.1088C106.913 53.9763 107.694 56.2121 108.419 56.5112L108.295 56.9233C103.876 59.636 101.544 64.1282 99.5303 68.7133L93.2139 66.77V66.767C92.9102 66.3324 94.4095 64.4809 94.5566 63.7504C94.8245 62.4279 94.6634 60.157 94.1953 58.8852C93.9781 58.2962 93.4483 57.9099 93.2734 57.2729C92.7461 55.3356 92.9262 52.7409 92.083 50.7163L95.4814 50.268L96.8799 56.0688ZM137.67 55.7358L127.586 64.8022L136.739 60.0131L138 64.7876L129.988 67.3422H129.985C127.532 65.859 125.423 63.6763 122.634 62.85L121.791 54.3627L126.455 53.2573L125.891 64.2407L130.169 50.4877L136.311 49.603L137.67 55.7358ZM25.2432 44.893C25.4151 44.6449 25.1986 44.3719 25.8721 44.5268L28.1309 61.8461C27.9842 62.6019 23.9208 65.0585 22.9648 65.5971L7.28418 58.3227L14.1836 56.1958L22.7734 61.9877L11.0732 50.1499C10.9407 49.8622 11.3928 45.7844 11.5479 45.2768C11.6522 44.9387 11.8294 44.8284 12.1787 44.8227C12.613 44.8171 16.8747 45.5671 17.0664 45.725L25.3057 61.144L21.9355 50.601C21.9722 50.0342 24.7074 45.6685 25.2432 44.893ZM7.28418 58.3227L7.28125 58.3247V58.3217L7.28418 58.3227ZM104.403 32.1928C108.625 31.3384 112.38 33.8985 112.397 38.2973C115.779 38.3932 118.598 41.5152 117.938 44.8793C117.84 45.3926 117.209 46.1994 117.26 46.642C117.317 47.1415 119.18 48.6187 119.383 50.6088C120.223 58.8767 108.38 59.6158 107.297 51.8442C102.602 53.9534 98.8286 52.1773 96.457 47.9194H96.4512C87.0217 54.6837 80.5897 39.4792 92.0859 37.6264C92.7091 35.2803 94.483 33.3543 96.9277 32.8862C98.4674 32.5901 100.419 34.1833 101.226 34.1157C101.719 34.0731 103.233 32.4298 104.403 32.1928ZM36.7119 30.1674L40.5273 47.6206C40.9983 47.6967 40.8343 46.9348 40.8174 46.6274C40.6115 43.0913 40.0423 39.5408 40.3018 35.9907L45.5947 31.2846L43.4971 49.0415L37.4336 51.1508L23.9014 39.7329H31.3652L38.2715 47.7583L29.8652 33.0444L31.6562 27.8979L36.7119 30.1674ZM79.1289 13.6889L75.7422 23.9614C75.4265 24.2433 74.4456 23.102 74.1914 22.8393C73.4864 22.109 68.5598 16.0599 68.4893 15.6059L72.085 5.37251L79.1289 13.6889ZM118.582 0.170362C118.87 0.0519268 119.087 -0.0439097 119.414 0.0209475L119.825 7.92231H119.828L112.939 12.6928L112.218 4.52681C112.39 4.18241 118.032 0.39594 118.582 0.170362Z" clip-rule="evenodd"/></svg>