<svg xmlns="http://www.w3.org/2000/svg" width="24" height="28" fill="none" viewBox="0 0 24 28"><path fill="#123234" fill-rule="evenodd" d="M18.0995 0.710161C14.0823 -0.23672 9.9164 -0.23672 5.89918 0.710161L5.46633 0.81114C4.33602 1.07682 3.29783 1.66808 2.46733 2.51908C1.63683 3.37008 1.04661 4.44743 0.762389 5.63118C-0.25413 9.86245 -0.25413 14.2942 0.762389 18.5255C1.03347 19.6544 1.58312 20.6875 2.35549 21.5199C3.12786 22.3523 4.09542 22.9543 5.15988 23.2647L5.75362 27.0023C5.77257 27.121 5.82135 27.2321 5.89488 27.3242C5.96841 27.4162 6.064 27.4858 6.17169 27.5257C6.27939 27.5655 6.39525 27.5742 6.50721 27.5509C6.61918 27.5275 6.72315 27.4729 6.8083 27.3927L10.2954 24.1035C12.9131 24.2701 15.5399 24.0494 18.0995 23.4478L18.5337 23.3469C19.664 23.0812 20.7022 22.4899 21.5327 21.6389C22.3632 20.7879 22.9534 19.7106 23.2376 18.5268C24.2541 14.2955 24.2541 9.8638 23.2376 5.63253C22.9533 4.4486 22.3629 3.37114 21.5321 2.52012C20.7014 1.6691 19.6629 1.07795 18.5324 0.812486L18.0995 0.710161ZM6.97685 5.52213C6.73953 5.48548 6.49748 5.53586 6.29118 5.66484H6.2733C5.79448 5.96105 5.3629 6.33399 4.99517 6.77291C4.68872 7.14586 4.52273 7.52285 4.47932 7.88637C4.45378 8.10179 4.47166 8.3199 4.53167 8.5259L4.55465 8.53936C4.8994 9.60704 5.34886 10.6343 5.8979 11.601C6.60617 12.9586 7.47735 14.2144 8.48992 15.3372L8.52057 15.383L8.56909 15.4207L8.59845 15.4571L8.63421 15.4894C9.70291 16.5602 10.8966 17.4832 12.1864 18.236C13.6612 19.0829 14.5563 19.4827 15.0938 19.6497V19.6578C15.2509 19.7089 15.3939 19.7318 15.5382 19.7318C15.9962 19.6972 16.4298 19.5008 16.7691 19.1744C17.184 18.7867 17.5352 18.3302 17.8084 17.8227V17.8132C18.0651 17.3016 17.9782 16.8196 17.608 16.4924C16.8648 15.8064 16.0605 15.1976 15.2062 14.6748C14.6342 14.3477 14.0532 14.5456 13.8182 14.8768L13.3164 15.5446C13.0585 15.8758 12.5912 15.83 12.5912 15.83L12.5784 15.8381C9.09132 14.8997 8.16049 11.1769 8.16049 11.1769C8.16049 11.1769 8.11708 10.6707 8.44012 10.4122L9.06834 9.87901C9.36968 9.62051 9.57908 9.00925 9.25604 8.40607C8.76135 7.50592 8.18537 6.65825 7.53611 5.87488C7.39409 5.69093 7.19519 5.56557 6.97429 5.52078M12.8683 3.90378C12.6989 3.90378 12.5366 3.9747 12.4168 4.10095C12.2971 4.2272 12.2298 4.39843 12.2298 4.57697C12.2298 4.75551 12.2971 4.92674 12.4168 5.05298C12.5366 5.17923 12.6989 5.25016 12.8683 5.25016C14.4835 5.25016 15.8242 5.80621 16.8853 6.87255C17.4305 7.45553 17.8557 8.14622 18.134 8.90289C18.4136 9.6609 18.5413 10.4701 18.5081 11.2806C18.5046 11.369 18.5176 11.4573 18.5465 11.5404C18.5753 11.6235 18.6194 11.6998 18.6762 11.7649C18.7909 11.8964 18.9504 11.9746 19.1197 11.9821C19.2891 11.9896 19.4543 11.9258 19.579 11.8049C19.7038 11.6839 19.7779 11.5157 19.785 11.3371C19.8231 10.3402 19.6662 9.34571 19.324 8.4155C18.9803 7.48055 18.4569 6.63068 17.7867 5.91931L17.7739 5.90584C16.4575 4.57966 14.7912 3.90378 12.8683 3.90378ZM12.8248 6.11723C12.6555 6.11723 12.4931 6.18815 12.3734 6.3144C12.2537 6.44065 12.1864 6.61188 12.1864 6.79042C12.1864 6.96896 12.2537 7.14019 12.3734 7.26643C12.4931 7.39268 12.6555 7.46361 12.8248 7.46361H12.8466C14.011 7.55112 14.8589 7.96042 15.4526 8.63227C16.0617 9.3243 16.3771 10.1846 16.3528 11.2483C16.3489 11.4268 16.4124 11.5997 16.5294 11.7288C16.6464 11.858 16.8072 11.9328 16.9765 11.937C17.1459 11.9411 17.3098 11.8741 17.4323 11.7507C17.5548 11.6274 17.6258 11.4578 17.6297 11.2792C17.6603 9.88305 17.2338 8.67804 16.3886 7.71673V7.71403C15.5241 6.73656 14.3379 6.21955 12.9104 6.11857L12.8887 6.11588L12.8248 6.11723ZM12.8006 8.37241C12.7151 8.36446 12.6291 8.37475 12.5475 8.40266C12.4659 8.43056 12.3905 8.47552 12.3257 8.53484C12.261 8.59416 12.2082 8.66663 12.1706 8.74792C12.133 8.82921 12.1114 8.91765 12.1069 9.00797C12.1024 9.09829 12.1153 9.18863 12.1447 9.2736C12.1741 9.35857 12.2194 9.43643 12.2779 9.50252C12.3365 9.56861 12.407 9.62159 12.4854 9.65829C12.5638 9.69498 12.6484 9.71465 12.7342 9.7161C13.2679 9.74572 13.6088 9.91537 13.8233 10.1429C14.0391 10.3718 14.2 10.7394 14.2294 11.3143C14.231 11.4046 14.2498 11.4937 14.2847 11.5762C14.3197 11.6587 14.37 11.7329 14.4327 11.7945C14.4955 11.8561 14.5693 11.9037 14.6498 11.9345C14.7304 11.9653 14.816 11.9788 14.9016 11.974C14.9871 11.9692 15.0709 11.9463 15.1479 11.9066C15.2249 11.867 15.2935 11.8114 15.3497 11.7431C15.4059 11.6749 15.4485 11.5955 15.475 11.5095C15.5014 11.4236 15.5112 11.3329 15.5037 11.2429C15.4628 10.4351 15.2228 9.72149 14.7312 9.1964C14.2371 8.67131 13.5641 8.4155 12.8006 8.37241Z" clip-rule="evenodd"/></svg>