<svg width="20" height="26" viewBox="0 0 20 26" fill="none" xmlns="http://www.w3.org/2000/svg">
    <path fill-rule="evenodd" clip-rule="evenodd" d="M9.0775 25.2469C9.0775 25.2469 0 17.5778 0 10.0315C0 7.37101 1.05357 4.81945 2.92893 2.93817C4.8043 1.05689 7.34784 0 10 0C12.6522 0 15.1957 1.05689 17.0711 2.93817C18.9464 4.81945 20 7.37101 20 10.0315C20 17.5778 10.9225 25.2469 10.9225 25.2469C10.4175 25.7133 9.58625 25.7083 9.0775 25.2469ZM10 14.4203C10.5745 14.4203 11.1434 14.3068 11.6742 14.0863C12.205 13.8657 12.6873 13.5424 13.0936 13.1349C13.4998 12.7274 13.8221 12.2435 14.042 11.7111C14.2618 11.1786 14.375 10.6079 14.375 10.0315C14.375 9.45519 14.2618 8.88449 14.042 8.35202C13.8221 7.81955 13.4998 7.33573 13.0936 6.92819C12.6873 6.52065 12.205 6.19738 11.6742 5.97682C11.1434 5.75626 10.5745 5.64274 10 5.64274C8.83968 5.64274 7.72688 6.10513 6.90641 6.92819C6.08594 7.75125 5.625 8.86756 5.625 10.0315C5.625 11.1955 6.08594 12.3118 6.90641 13.1349C7.72688 13.9579 8.83968 14.4203 10 14.4203Z" fill="#123234"/>
</svg>
