<svg width="24" height="20" viewBox="0 0 24 20" fill="none" xmlns="http://www.w3.org/2000/svg">
    <path d="M21.6 0H2.4C1.08 0 0.012 1.10747 0.012 2.46104L0 17.2273C0 18.5809 1.08 19.6883 2.4 19.6883H21.6C22.92 19.6883 24 18.5809 24 17.2273V2.46104C24 1.10747 22.92 0 21.6 0ZM21.12 5.22972L12.636 10.6686C12.252 10.9147 11.748 10.9147 11.364 10.6686L2.88 5.22972C2.75967 5.16045 2.6543 5.06687 2.57027 4.95464C2.48623 4.84241 2.42527 4.71386 2.39109 4.57677C2.35691 4.43968 2.3502 4.2969 2.37139 4.15708C2.39257 4.01726 2.4412 3.8833 2.51434 3.76331C2.58747 3.64331 2.68359 3.53979 2.79687 3.45899C2.91015 3.37819 3.03825 3.32181 3.17339 3.29324C3.30854 3.26468 3.44794 3.26453 3.58315 3.29281C3.71835 3.32109 3.84656 3.37721 3.96 3.45777L12 8.61365L20.04 3.45777C20.1534 3.37721 20.2817 3.32109 20.4169 3.29281C20.5521 3.26453 20.6915 3.26468 20.8266 3.29324C20.9618 3.32181 21.0898 3.37819 21.2031 3.45899C21.3164 3.53979 21.4125 3.64331 21.4857 3.76331C21.5588 3.8833 21.6074 4.01726 21.6286 4.15708C21.6498 4.2969 21.6431 4.43968 21.6089 4.57677C21.5747 4.71386 21.5138 4.84241 21.4297 4.95464C21.3457 5.06687 21.2403 5.16045 21.12 5.22972Z" fill="#123234"/>
</svg>
