<svg width="138" height="126" viewBox="0 0 138 126" fill="none" xmlns="http://www.w3.org/2000/svg">
    <path d="M70.6641 113.716C70.8039 113.16 74.2376 113.427 74.9678 113.524C78.7464 114.029 80.1494 116.065 82.8038 118.397L81.3721 124.637L74.3604 125.482C73.9214 124.751 70.6606 120.684 70.6602 120.374V113.72L70.6641 113.716ZM57.8926 109.206C57.8954 110.866 58.4493 112.546 58.1036 114.223C58.0288 114.591 56.3424 117.515 56.1065 117.713V117.71C55.3191 118.366 52.2195 117.828 51.0616 117.96L49.9307 113.742C51.5604 110.499 54.3562 109.305 57.8926 109.206ZM65.0694 95.5303C65.7937 95.1077 68.5184 97.7698 68.8751 98.3652C69.3195 99.1062 70.1893 102.698 69.712 103.329V103.326C69.5694 103.515 66.7303 105.909 66.5215 105.931C65.6957 105.643 62.6937 104.062 62.5538 103.312C61.9557 100.116 63.1764 97.912 65.0694 95.5303ZM65.0255 75.5762C67.7415 76.7259 69.1605 79.6513 68.8067 82.5352L65.9454 84.7441L62.6143 82.8125C62.0958 79.7036 62.8279 77.7219 65.0255 75.5762ZM33.3985 1.62988L41.9854 2.93555L58.8497 10.7012L113.181 1.64941C117.675 1.41897 122.136 1.99752 126.607 2.20605C129.87 2.35969 133.883 2.08289 137.058 2.45605H137.055C137.455 2.50268 137.76 2.48879 138.001 2.88086V29.6377L117.153 27.9883V27.9824H114.697C112.689 30.8965 111.221 34.2031 108.928 36.9141C105.139 41.3866 100.047 44.5454 95.6221 48.3018C90.3683 52.7607 84.9875 58.1091 80.1397 63.1553L78.8262 64.6719C78.7796 64.7844 78.7466 64.9003 78.7383 65.0293H78.5186L75.9395 68.0059C73.9944 70.3628 71.0701 73.5842 70.6885 73.5186C69.476 72.4979 68.0771 70.9534 67.6846 69.373C65.2319 59.5058 77.3631 51.3445 82.2383 44.2432C82.6525 43.3048 82.6858 41.3323 82.546 39.1045L68.8585 29.626L63.1104 31.7314C62.4112 32.2607 61.8789 32.6883 61.7745 32.8311C60.5975 34.428 59.3385 37.8475 58.3096 39.793C57.2589 41.7768 55.9231 43.618 54.9327 45.6348C56.4086 48.8973 56.8692 53.1234 58.2217 56.3311C59.0915 58.397 60.9847 60.4436 61.9669 62.7373C63.6569 66.6804 64.7403 71.708 60.2217 74.0596C53.4233 65.4298 47.7877 55.9494 42.2979 46.4443C44.2431 40.918 46.6794 35.5804 48.8907 30.1611L46.1006 29.9883L11.3077 39.9795C6.90156 41.1374 2.76904 39.5785 0.0117798 36.0635C-0.0920879 35.6082 0.517123 35.4107 0.810608 35.2461C1.11239 35.0732 1.43875 34.9057 1.78717 34.7383L8.34381 29.8486L25.6094 22.9668C19.6478 22.9394 9.57885 24.2785 6.99713 18.6562C6.81331 18.2529 6.08936 16.1373 6.31158 15.915C6.37025 15.9013 18.6645 13.0323 19.335 13.4785C20.0089 13.928 33.2174 13.3992 33.2364 13.3984L40.0401 11.7412C37.1593 10.3308 31.571 7.40595 31.0196 6.9834C29.3543 5.70471 28.5149 3.0755 28.6768 0.916016C28.7015 0.59791 28.745 0.290695 28.8135 0L33.3985 1.62988ZM67.4376 59.873C68.2743 61.3109 66.6007 64.9688 65.1631 65.8496C63.3195 64.409 62.661 62.9019 62.6006 60.5586L65.1631 58.4355L67.4376 59.873Z" fill="#123234"/>
</svg>
