<svg width="118" height="103" viewBox="0 0 118 103" fill="none" xmlns="http://www.w3.org/2000/svg">
    <path d="M80.8408 68.4082L71.7627 74.1426L60.5889 79.0469C60.8226 79.3069 61.0563 79.5671 61.29 79.8242L73.6543 76.6885L74.1768 76.1445C74.7029 75.902 75.2238 75.6802 75.7354 75.4932C79.7309 74.0436 83.922 73.3153 88.1367 72.8711C88.4056 72.8419 88.6745 72.8242 88.9404 72.8096L98.9893 70.9658C101.594 69.2853 104.21 67.6718 106.806 66.4561C110.599 64.6822 114.919 64.355 118.003 67.6279C106.308 76.5692 94.6824 85.6095 82.3037 93.6045C82.8539 93.8496 83.7374 93.1698 84.2344 92.9053L72.5195 100.639C64.0666 102.1 55.2074 101.925 46.5996 102.223C39.3392 102.474 31.9207 102.886 24.7012 102.985C16.4528 103.099 8.23665 101.965 0 101.714L0.674805 76.3086L18.8789 78.6465C18.8789 78.6465 24.5146 74.6661 29.0977 71.4863C30.6702 70.1449 32.3361 68.9377 34.0635 67.8037C35.0572 67.5378 36.0776 67.3799 37.1064 67.4004C46.3027 66.5517 80.6909 63.486 80.8408 63.4727V68.4082ZM74.7207 95.8604L74.8936 95.6436H74.8027C74.7764 95.7166 74.7441 95.7873 74.7207 95.8604ZM70.2988 20.4844C70.8108 20.4742 78.1762 23.4767 78.7139 23.8828C79.2666 24.3014 82.7256 29.4756 83.0625 30.3008L87.7188 47.3574L87.9707 46.209C86.8191 42.547 87.4267 37.8995 86.5557 34.3428C86.1111 32.5308 80.1513 23.4839 80.5342 22.9658L87.1572 21.1826L95.2393 25.3096C98.1826 29.9593 101.05 34.7292 103.154 39.8262C103.806 39.9168 103.453 39.0744 103.354 38.7295C101.921 33.7233 98.8905 28.2086 96.3301 23.6875C97.4114 23.7137 98.4811 23.5146 99.5449 23.877C100.352 24.1517 108.176 29.5152 108.693 30.1611C109.708 31.43 112.268 39.9194 112.938 42.0645C113.949 45.2997 114.945 48.5588 115.726 51.8643L115.731 51.8555C115.798 52.2936 115.633 52.6937 115.56 53.1084C115.346 54.3154 114.206 57.9691 112.923 61.7275L103.93 64.2441C103.976 64.1157 104.02 63.9869 104.061 63.8643C104.175 63.5136 104.552 62.7124 103.877 62.7852C103.876 62.7868 103.875 62.7884 103.874 62.79C104.545 62.72 104.168 63.52 104.055 63.8701C104.014 63.9927 103.97 64.1216 103.923 64.25L103.107 64.4775C103.108 64.4757 103.109 64.4735 103.109 64.4717L87.4502 68.8525V66.3037L86.708 62.7998L83.3115 58.1299L36.1709 63.4697C36.1526 63.4788 32.5591 65.2616 29.667 66.8066C27.9339 61.5902 26.356 54.6 24.9502 51.8379C26.5344 46.5627 28.0132 41.214 29.9219 36.0439C30.4948 34.492 31.4915 31.0374 32.4355 29.9473C33.1381 29.1371 40.1518 24.2892 41.1514 23.9473C42.4316 23.5089 43.0196 23.816 44.2852 24.0352C41.675 28.3489 39.067 33.1505 37.6348 38.0166C37.5295 38.3761 37.1383 39.1678 37.8193 39.0977L45.1992 25.4844L53.8193 21.1709L60.0859 23.1436L53.9766 35.1553C56.9696 32.2561 59.68 25.3185 63.1699 23.3604C63.951 22.9217 69.7669 20.4961 70.2988 20.4844ZM74.9746 15.7881L81.6162 20.4492C77.6646 22.3108 74.1014 18.9499 70.3164 17.9795C66.391 18.8709 63.0609 22.422 59.001 20.4492C60.5384 18.5028 64.5839 17.5089 65.3672 15.1533C65.6536 14.2852 66.2703 11.0849 66.1738 10.2607C66.0008 8.79901 62.4977 3.94297 62.9766 3.26172L71.2012 0L74.9746 15.7881Z" fill="#123234"/>
</svg>
