<svg width="167" height="127" viewBox="0 0 167 127" fill="none" xmlns="http://www.w3.org/2000/svg">
    <g clip-path="url(#clip0_109_236)">
        <path d="M63.8533 25.023L64.9873 24.5577L91.5788 54.6848L85.3508 63.7964L102.589 83.1927L112.372 82.9218C115.714 80.485 118.905 76.9637 122.259 74.6489L122.259 74.6508C122.462 74.5109 122.332 74.1004 122.692 74.6886L120.239 100.169L111.386 90.4979L56.9063 100.635L53.1285 105.413L52.5962 105.261L8.74396 54.9903C10.1355 53.831 18.9588 50.0383 19.3577 48.97L20.2185 27.9153L46.5627 5.76895L63.8533 25.023ZM123.376 95.1824C130.972 100.021 134.466 109.369 133.608 118.09L130.661 117.924C131.421 111.414 129.308 104.826 124.844 100.023C124.42 99.5691 123.452 99.0926 123.228 98.6046C122.879 97.8402 123.39 96.0804 123.376 95.1824ZM123.99 88.1304C135.287 93.4589 141.579 106.438 139.98 118.538L137.284 118.446C138.097 107.875 133.752 96.6117 123.968 91.477L123.99 88.1304ZM124.729 81.6007C139.769 86.9797 148.063 103.361 146.693 118.701C146.426 119.178 144.305 118.736 143.722 118.672C145.152 104.6 137.788 90.0403 124.36 84.4586L124.729 81.6007ZM69.6182 84.6379L69.621 84.6386L96.5657 83.6001L82.4059 67.4712L69.6182 84.6379ZM50.3691 52.5596C50.2436 52.3868 50.0053 52.0674 47.6068 52.0008C45.167 51.9349 44.9757 52.1671 44.8612 52.3074L44.7431 52.4517L44.8328 54.0809L46.5216 54.1691C44.7895 55.9556 43.4243 57.558 42.6611 60.2212C41.6726 63.6746 42.2532 67.4442 44.2546 70.5602C44.6105 71.1131 45.0017 71.6347 45.427 72.1241C47.4599 74.4577 50.2404 76.0233 53.2903 76.5064C53.3559 76.5164 57.8663 77.0392 58.7878 75.8306L58.7895 75.836C59.011 75.5441 59.0399 75.1862 58.875 74.8258L58.8271 74.7197L58.0765 74.1246L57.8542 74.168C51.7802 75.3527 47.2561 71.9039 45.4684 67.9605C43.98 64.6762 43.843 59.6746 48.0437 55.9171C47.9183 56.8268 47.7869 58.0177 48.7777 58.2514C49.0499 58.316 49.32 58.2588 49.5405 58.0911C50.2736 57.5286 50.3767 55.7763 50.4278 53.7149C50.4352 53.3543 50.4438 53.0436 50.4603 52.9059L50.4839 52.715L50.3691 52.5596ZM59.0492 51.1812C57.864 50.7914 54.103 50.0705 52.6689 50.7708C52.115 51.0415 51.7843 51.5076 51.8077 51.9846C51.8192 52.1858 51.9194 52.6877 52.6275 52.9561C52.8712 53.049 53.2947 53.034 54.4385 52.97C55.3516 52.9204 56.49 52.8578 57.0277 52.9534C61.3784 53.736 64.7182 56.9223 65.7409 61.2721C66.6266 65.0394 65.4561 68.7767 62.675 71.2621L62.7173 69.3575L60.9193 69.2344L60.7624 69.3949C60.3183 69.8523 59.9906 73.7151 60.1113 74.1275C60.1802 74.3616 60.2533 74.525 60.3642 74.652C60.4745 74.7814 60.6259 74.8756 60.85 74.9764C61.4156 75.2293 64.7309 75.4499 65.779 74.9521L65.7779 74.9569C66.0521 74.8283 66.2197 74.6429 66.2807 74.4086C66.3806 74.0146 66.2539 73.7371 66.1287 73.5745C65.7699 73.1106 65.031 73.019 64.3212 72.9884C67.5079 69.8979 68.9122 65.6006 68.0908 61.2769C67.1903 56.5232 63.8097 52.7502 59.0492 51.1812ZM16.205 56.1995C16.0309 56.5245 16.345 56.6364 16.4741 56.8369C17.0455 57.7369 18.6443 59.4106 19.4445 60.239C19.8041 60.6116 20.6941 61.7833 21.1694 61.6386L64.3046 30.8588L64.2221 30.0927L16.205 56.1995ZM59.7576 58.9961C58.8348 58.9343 57.6784 58.9414 56.526 59.0754C56.3838 59.0652 56.2897 59.0734 56.2744 59.1071C54.9245 59.2854 53.5988 59.6407 52.6857 60.2588L52.6838 60.2584C47.2175 63.9554 53.0173 70.799 57.5559 66.0882C58.7709 64.8264 59.8301 61.555 59.9365 59.8092C59.9545 59.5229 60.0598 59.2041 59.7576 58.9961ZM45.8721 13.7491C39.4358 19.6153 32.5188 25.0591 25.8211 30.6694L25.276 45.9952L58.5772 28.0542L45.8714 13.752L45.8721 13.7491Z" fill="#123234"/>
    </g>
    <defs>
        <clipPath id="clip0_109_236">
            <rect width="148.669" height="95.6781" fill="white" transform="translate(21.3029) rotate(12.8649)"/>
        </clipPath>
    </defs>
</svg>
