<svg width="102" height="157" viewBox="0 0 102 157" fill="none" xmlns="http://www.w3.org/2000/svg">
    <path d="M38.0273 129.275V137.524L47.1572 140.321L54.8154 144.797C54.9001 144.811 64.9128 146.476 65.1367 146.811C65.2251 146.945 66.5315 148.614 68.0625 150.563C68.6546 151.206 69.1981 151.898 69.6885 152.633C71.4777 154.907 73.1139 156.983 73.127 157H71.8047C71.8056 157.003 71.8067 157.006 71.8076 157.009H0C0.000825809 157.006 0.00210225 157.003 0.00292969 157H0.000976562L0.00683594 156.984C0.26088 156.076 0.592519 155.221 0.990234 154.42L3.30957 148.379L12.1885 144.686L17.8047 146.177L24.3994 140.096L33.0156 138.307L33.9209 137.3V129.02L35.7109 125.447L38.0273 129.275ZM58.3994 118.431L51.2793 128.943L45.3398 131.346L38.082 128.241H38.0791L50.9463 121.988L50.623 121.329L37.3027 126.723C37.9597 124.902 38.3882 122.974 39.0635 121.163C39.2468 120.673 39.6467 119.588 39.8545 119.2C40.0167 118.902 40.7074 118.621 41.0312 118.461C42.6415 117.669 44.3714 116.958 46.0488 116.352L58.3994 118.431ZM29.0469 109.81L34.6719 115.948L34.29 126.232H34.2871L20.8486 113.419L20.207 114.118L32.8174 127.881C30.3271 127.918 27.8183 128.287 25.3311 128.296C24.6588 128.296 23.1735 128.308 22.6113 128.234C22.1775 128.176 21.5238 127.462 21.1816 127.142C19.4889 125.54 17.8361 123.762 16.3389 121.994L13.1455 105.969L29.0469 109.81ZM36.9727 102.321C38.7204 102.586 40.591 105.398 39.6562 107.037C39.4485 107.401 37.444 108.673 36.7686 108.414C33.6672 107.228 34.3267 103.664 36.9727 102.321ZM33.1934 92.9551C36.3986 94.7847 36.817 97.732 33.1533 99.2998C29.768 97.5472 30.1348 94.8062 33.1934 92.9551ZM38.4951 86.6064C41.3245 87.3027 42.0913 91.0118 39.0938 92.1699C37.2299 92.8904 35.9277 89.4708 36.7344 88.0693C36.8239 87.915 38.318 87.1668 38.4951 86.6064ZM62.7656 2.16504L66.2305 3.21875L66.8721 6.42188L70.292 7.36426L70.8506 10.1826L74.6582 10.583V13.9404L78.1543 15.9551L78.4873 19.8975L82.7559 22.1123C82.8654 22.1491 82.9449 22.1857 82.9756 22.2256C83.0275 22.2933 83.0428 22.402 83.0459 22.5283L83.2686 23.498C83.2869 23.5196 83.2998 23.5439 83.3242 23.5654C83.8803 24.0674 85.9695 23.9541 86.5352 24.6406C87.0027 25.2104 87.0218 26.905 87.3701 27.6504L90.8164 28.6416L91.6445 31.9688L94.874 32.7139L95.6201 35.9629C96.3778 36.508 98.1737 36.3763 98.7637 36.9551C99.8725 38.0482 98.5632 40.9937 101.963 40.6572C102.087 41.123 101.844 41.1664 101.664 41.4277C101.508 41.6495 101.068 42.1726 100.506 42.8008C99.4578 43.9712 97.9909 45.5082 97.1689 46.1797L85.6768 57.8164L85.0049 58.5127L84.9951 58.5039L61.8213 81.9707L61.9287 82.082L56.2812 88.082L55.4531 85.3779L52.2119 84.6416L51.7168 81.6016L48.2549 80.625L47.582 77.4521L44.499 76.8643L43.7227 73.5781L40.6152 72.9248L40.0928 69.9092L36.7168 68.6924L36.2119 65.6592L32.9766 64.917L32.4629 61.8916L28.9766 60.9404L28.4873 57.8906L25.2363 56.8555L24.5859 53.9697L21.3379 53.2402L20.6924 50.0391L17.3564 49.248L17.167 45.8994C15.5383 45.1325 62.0967 0 62.0967 0L62.7656 2.16504ZM33.1104 80.0215C35.6832 81.9219 36.0835 83.7823 33.1104 85.5195C32.9579 85.5448 31.3838 84.3765 31.2617 84.2227H31.2588C30.0461 82.7136 31.6927 80.6531 33.1104 80.0215ZM37.4834 72.959C40.1906 74.2249 40.2885 77.3725 37.1719 78.1025C34.5318 76.7781 34.8679 74.0863 37.4834 72.959ZM101.967 40.6572C101.966 40.6573 101.964 40.6571 101.963 40.6572V40.6543L101.967 40.6572Z" fill="#123234"/>
</svg>
